<svg width="1705" height="1261" viewBox="0 0 1705 1261" fill="none" xmlns="http://www.w3.org/2000/svg">
<rect width="1705" height="1261" fill="#070823"/>
<g filter="url(#filter0_b_2054_819)">
<rect x="314" y="403" width="1079" height="675" rx="30" fill="white" fill-opacity="0.1"/>
<rect x="316" y="405" width="1075" height="671" rx="28" stroke="white" stroke-opacity="0.1" stroke-width="4"/>
</g>
<g filter="url(#filter1_b_2054_819)">
<rect x="835" y="697" width="444" height="315" rx="30" fill="white" fill-opacity="0.1"/>
<rect x="837" y="699" width="440" height="311" rx="28" stroke="white" stroke-opacity="0.1" stroke-width="4"/>
</g>
<path d="M315.257 390V360.182H327.574C329.807 360.182 331.733 360.619 333.354 361.492C334.985 362.356 336.242 363.565 337.125 365.118C338.009 366.661 338.45 368.457 338.45 370.505C338.45 372.562 337.999 374.363 337.096 375.906C336.203 377.44 334.927 378.629 333.267 379.473C331.607 380.318 329.637 380.74 327.356 380.74H319.756V375.062H326.016C327.103 375.062 328.011 374.873 328.739 374.494C329.477 374.115 330.035 373.586 330.413 372.907C330.792 372.218 330.981 371.417 330.981 370.505C330.981 369.583 330.792 368.787 330.413 368.117C330.035 367.437 329.477 366.913 328.739 366.544C328.001 366.176 327.094 365.991 326.016 365.991H322.464V390H315.257ZM347.506 390.379C346.08 390.379 344.813 390.141 343.706 389.665C342.609 389.18 341.741 388.452 341.1 387.481C340.469 386.501 340.154 385.273 340.154 383.798C340.154 382.555 340.372 381.507 340.809 380.653C341.246 379.799 341.848 379.105 342.614 378.571C343.381 378.037 344.264 377.634 345.264 377.362C346.264 377.081 347.332 376.891 348.467 376.794C349.739 376.678 350.763 376.557 351.539 376.43C352.316 376.295 352.879 376.105 353.228 375.863C353.587 375.61 353.767 375.256 353.767 374.8V374.727C353.767 373.98 353.51 373.402 352.995 372.994C352.481 372.587 351.787 372.383 350.913 372.383C349.972 372.383 349.215 372.587 348.642 372.994C348.069 373.402 347.705 373.965 347.55 374.683L340.984 374.45C341.178 373.091 341.678 371.878 342.483 370.81C343.299 369.733 344.415 368.888 345.832 368.277C347.259 367.656 348.972 367.345 350.972 367.345C352.398 367.345 353.714 367.515 354.917 367.855C356.121 368.185 357.169 368.67 358.062 369.311C358.955 369.942 359.644 370.718 360.13 371.64C360.625 372.562 360.872 373.616 360.872 374.8V390H354.175V386.884H354C353.602 387.641 353.092 388.282 352.471 388.806C351.86 389.33 351.137 389.723 350.302 389.985C349.477 390.248 348.545 390.379 347.506 390.379ZM349.705 385.719C350.472 385.719 351.161 385.564 351.772 385.254C352.394 384.943 352.889 384.516 353.257 383.972C353.626 383.419 353.811 382.778 353.811 382.05V379.925C353.607 380.031 353.359 380.129 353.068 380.216C352.787 380.303 352.476 380.386 352.136 380.463C351.797 380.541 351.447 380.609 351.088 380.667C350.729 380.725 350.384 380.779 350.054 380.827C349.385 380.934 348.812 381.099 348.336 381.322C347.87 381.546 347.511 381.837 347.259 382.196C347.016 382.545 346.895 382.963 346.895 383.448C346.895 384.186 347.157 384.749 347.681 385.137C348.215 385.525 348.89 385.719 349.705 385.719ZM365.225 390V367.636H372.141V371.713H372.374C372.782 370.238 373.447 369.141 374.369 368.423C375.291 367.695 376.364 367.331 377.587 367.331C377.917 367.331 378.256 367.355 378.606 367.403C378.955 367.442 379.28 367.505 379.581 367.593V373.781C379.242 373.664 378.795 373.572 378.242 373.504C377.698 373.436 377.213 373.402 376.786 373.402C375.941 373.402 375.179 373.591 374.5 373.97C373.83 374.339 373.301 374.858 372.913 375.528C372.534 376.188 372.345 376.964 372.345 377.857V390H365.225ZM391.775 390.422C389.436 390.422 387.417 389.961 385.718 389.039C384.029 388.107 382.729 386.782 381.816 385.064C380.914 383.337 380.462 381.284 380.462 378.906C380.462 376.595 380.918 374.576 381.831 372.849C382.743 371.111 384.029 369.762 385.689 368.801C387.349 367.83 389.305 367.345 391.557 367.345C393.148 367.345 394.604 367.593 395.925 368.088C397.245 368.583 398.385 369.316 399.346 370.286C400.307 371.257 401.054 372.456 401.588 373.882C402.122 375.3 402.389 376.925 402.389 378.76V380.536H382.952V376.401H395.764C395.755 375.644 395.575 374.97 395.226 374.377C394.876 373.785 394.396 373.324 393.784 372.994C393.182 372.655 392.488 372.485 391.702 372.485C390.906 372.485 390.193 372.664 389.562 373.023C388.931 373.373 388.431 373.853 388.062 374.465C387.693 375.067 387.499 375.751 387.48 376.518V380.725C387.48 381.638 387.66 382.439 388.019 383.128C388.378 383.807 388.887 384.336 389.547 384.715C390.207 385.093 390.994 385.283 391.906 385.283C392.537 385.283 393.11 385.195 393.624 385.021C394.139 384.846 394.58 384.589 394.949 384.249C395.318 383.909 395.595 383.492 395.779 382.997L402.316 383.186C402.044 384.652 401.448 385.928 400.525 387.015C399.613 388.093 398.414 388.932 396.929 389.534C395.444 390.126 393.726 390.422 391.775 390.422ZM413.145 377.246V390H406.025V367.636H412.796V371.742H413.043C413.538 370.374 414.383 369.301 415.576 368.525C416.77 367.738 418.192 367.345 419.842 367.345C421.415 367.345 422.779 367.699 423.934 368.408C425.098 369.107 426.001 370.087 426.642 371.349C427.292 372.601 427.612 374.067 427.603 375.746V390H420.483V377.144C420.493 375.901 420.177 374.931 419.537 374.232C418.906 373.533 418.027 373.184 416.901 373.184C416.154 373.184 415.494 373.349 414.921 373.679C414.358 373.999 413.921 374.46 413.611 375.062C413.31 375.664 413.155 376.392 413.145 377.246ZM444.634 367.636V372.878H430.526V367.636H444.634ZM433.481 362.278H440.601V382.968C440.601 383.404 440.669 383.759 440.805 384.031C440.95 384.293 441.159 384.482 441.431 384.598C441.703 384.705 442.028 384.759 442.406 384.759C442.678 384.759 442.964 384.734 443.265 384.686C443.576 384.627 443.809 384.579 443.964 384.54L445.042 389.68C444.702 389.777 444.221 389.898 443.6 390.044C442.989 390.189 442.256 390.281 441.402 390.32C439.732 390.398 438.3 390.204 437.107 389.738C435.922 389.262 435.015 388.525 434.384 387.525C433.763 386.525 433.462 385.268 433.481 383.754V362.278Z" fill="#ABAAC5"/>
<path d="M864.333 665.989H857.054C856.957 665.241 856.758 664.567 856.457 663.965C856.156 663.363 855.758 662.848 855.263 662.421C854.768 661.994 854.18 661.669 853.501 661.446C852.831 661.213 852.089 661.096 851.273 661.096C849.827 661.096 848.58 661.451 847.532 662.159C846.493 662.868 845.692 663.892 845.129 665.231C844.576 666.571 844.299 668.192 844.299 670.094C844.299 672.074 844.581 673.734 845.144 675.074C845.716 676.404 846.517 677.408 847.546 678.088C848.585 678.757 849.813 679.092 851.23 679.092C852.026 679.092 852.749 678.99 853.399 678.786C854.059 678.583 854.637 678.287 855.132 677.898C855.636 677.5 856.049 677.02 856.369 676.457C856.699 675.884 856.927 675.239 857.054 674.52L864.333 674.564C864.207 675.884 863.824 677.185 863.183 678.466C862.552 679.747 861.684 680.917 860.577 681.975C859.47 683.023 858.121 683.858 856.529 684.479C854.947 685.1 853.132 685.411 851.084 685.411C848.386 685.411 845.969 684.819 843.833 683.635C841.708 682.441 840.028 680.703 838.796 678.422C837.563 676.141 836.947 673.365 836.947 670.094C836.947 666.814 837.573 664.033 838.825 661.752C840.077 659.471 841.771 657.738 843.906 656.554C846.042 655.37 848.434 654.778 851.084 654.778C852.89 654.778 854.559 655.03 856.093 655.535C857.626 656.03 858.975 656.758 860.14 657.719C861.305 658.67 862.251 659.839 862.979 661.227C863.707 662.616 864.159 664.203 864.333 665.989ZM875.577 672.249V685.003H868.457V655.185H875.344V666.746H875.592C876.096 665.367 876.921 664.29 878.067 663.513C879.222 662.737 880.634 662.349 882.304 662.349C883.876 662.349 885.245 662.698 886.409 663.397C887.574 664.086 888.477 665.062 889.118 666.323C889.768 667.585 890.088 669.061 890.079 670.75V685.003H882.959V672.147C882.969 670.905 882.658 669.934 882.027 669.235C881.396 668.536 880.508 668.187 879.363 668.187C878.615 668.187 877.955 668.352 877.383 668.682C876.82 669.002 876.378 669.463 876.058 670.065C875.747 670.667 875.587 671.395 875.577 672.249ZM894.523 685.003V662.64H901.643V685.003H894.523ZM898.09 660.034C897.09 660.034 896.231 659.704 895.513 659.044C894.795 658.374 894.436 657.568 894.436 656.627C894.436 655.695 894.795 654.899 895.513 654.239C896.231 653.569 897.09 653.234 898.09 653.234C899.099 653.234 899.958 653.569 900.667 654.239C901.385 654.899 901.744 655.695 901.744 656.627C901.744 657.568 901.385 658.374 900.667 659.044C899.958 659.704 899.099 660.034 898.09 660.034ZM913.294 655.185V685.003H906.174V655.185H913.294ZM925.994 685.324C924.343 685.324 922.844 684.897 921.495 684.042C920.145 683.188 919.068 681.907 918.262 680.199C917.457 678.49 917.054 676.37 917.054 673.836C917.054 671.206 917.471 669.041 918.306 667.343C919.141 665.644 920.233 664.387 921.582 663.572C922.941 662.756 924.402 662.349 925.964 662.349C927.139 662.349 928.144 662.552 928.978 662.96C929.813 663.358 930.502 663.872 931.046 664.503C931.589 665.134 932.002 665.79 932.283 666.469H932.429V655.185H939.549V685.003H932.502V681.378H932.283C931.982 682.067 931.555 682.713 931.002 683.314C930.449 683.916 929.755 684.402 928.92 684.77C928.095 685.139 927.12 685.324 925.994 685.324ZM928.469 679.777C929.333 679.777 930.07 679.534 930.682 679.049C931.293 678.553 931.764 677.859 932.094 676.966C932.424 676.073 932.589 675.025 932.589 673.822C932.589 672.599 932.424 671.545 932.094 670.662C931.774 669.779 931.303 669.099 930.682 668.624C930.07 668.148 929.333 667.91 928.469 667.91C927.585 667.91 926.838 668.153 926.227 668.638C925.615 669.124 925.149 669.808 924.829 670.691C924.518 671.575 924.363 672.618 924.363 673.822C924.363 675.025 924.523 676.073 924.843 676.966C925.164 677.859 925.625 678.553 926.227 679.049C926.838 679.534 927.585 679.777 928.469 679.777Z" fill="#ABAAC5"/>
<path d="M896.618 487.273L889.371 508H882.894L875.648 487.273H881.72L886.025 502.103H886.241L890.532 487.273H896.618ZM904.914 508.391C903.591 508.391 902.413 508.162 901.378 507.703C900.343 507.235 899.525 506.547 898.922 505.638C898.328 504.721 898.031 503.578 898.031 502.211C898.031 501.059 898.243 500.092 898.666 499.31C899.088 498.527 899.664 497.897 900.393 497.42C901.122 496.944 901.949 496.584 902.876 496.341C903.811 496.098 904.792 495.927 905.818 495.828C907.023 495.702 907.995 495.585 908.732 495.477C909.47 495.36 910.005 495.189 910.338 494.964C910.671 494.74 910.838 494.407 910.838 493.966V493.885C910.838 493.03 910.568 492.369 910.028 491.901C909.497 491.433 908.741 491.2 907.761 491.2C906.726 491.2 905.903 491.429 905.291 491.888C904.68 492.338 904.275 492.904 904.077 493.588L898.76 493.156C899.03 491.897 899.561 490.808 900.352 489.891C901.144 488.964 902.165 488.253 903.416 487.759C904.675 487.255 906.133 487.003 907.788 487.003C908.939 487.003 910.041 487.138 911.094 487.408C912.155 487.678 913.096 488.096 913.914 488.663C914.742 489.229 915.394 489.958 915.871 490.849C916.348 491.73 916.586 492.787 916.586 494.02V508H911.134V505.126H910.972C910.64 505.773 910.194 506.345 909.637 506.839C909.079 507.325 908.409 507.708 907.626 507.987C906.843 508.256 905.939 508.391 904.914 508.391ZM906.56 504.424C907.405 504.424 908.152 504.258 908.8 503.925C909.448 503.583 909.956 503.124 910.325 502.548C910.694 501.973 910.878 501.32 910.878 500.592V498.392C910.698 498.509 910.451 498.617 910.136 498.716C909.83 498.806 909.484 498.891 909.097 498.972C908.71 499.044 908.323 499.112 907.936 499.175C907.549 499.229 907.199 499.278 906.884 499.323C906.209 499.422 905.62 499.58 905.116 499.795C904.612 500.011 904.221 500.304 903.942 500.673C903.663 501.032 903.524 501.482 903.524 502.022C903.524 502.805 903.807 503.403 904.374 503.817C904.95 504.222 905.678 504.424 906.56 504.424ZM926.795 480.364V508H921.046V480.364H926.795ZM944.691 499.175V487.273H950.44V508H944.921V504.235H944.705C944.237 505.45 943.459 506.426 942.37 507.163C941.291 507.901 939.973 508.27 938.417 508.27C937.031 508.27 935.812 507.955 934.76 507.325C933.707 506.696 932.884 505.8 932.29 504.64C931.705 503.479 931.408 502.089 931.4 500.47V487.273H937.148V499.445C937.157 500.668 937.485 501.635 938.133 502.346C938.781 503.057 939.649 503.412 940.738 503.412C941.43 503.412 942.078 503.254 942.681 502.94C943.283 502.616 943.769 502.139 944.138 501.509C944.516 500.879 944.7 500.101 944.691 499.175ZM964.484 508.405C962.352 508.405 960.517 507.973 958.979 507.109C957.449 506.237 956.271 505.004 955.443 503.412C954.615 501.811 954.202 499.917 954.202 497.731C954.202 495.599 954.615 493.728 955.443 492.117C956.271 490.507 957.436 489.252 958.938 488.352C960.449 487.453 962.222 487.003 964.255 487.003C965.622 487.003 966.895 487.223 968.074 487.664C969.261 488.096 970.296 488.748 971.177 489.621C972.068 490.493 972.761 491.591 973.256 492.913C973.75 494.227 973.998 495.765 973.998 497.528V499.107H956.496V495.545H968.586C968.586 494.717 968.407 493.984 968.047 493.345C967.687 492.706 967.188 492.207 966.549 491.847C965.919 491.478 965.186 491.294 964.349 491.294C963.477 491.294 962.703 491.496 962.028 491.901C961.363 492.297 960.841 492.832 960.463 493.507C960.085 494.173 959.892 494.915 959.883 495.734V499.121C959.883 500.146 960.072 501.032 960.449 501.779C960.836 502.526 961.381 503.102 962.082 503.506C962.784 503.911 963.616 504.114 964.579 504.114C965.217 504.114 965.802 504.024 966.333 503.844C966.864 503.664 967.318 503.394 967.696 503.034C968.074 502.674 968.362 502.233 968.559 501.712L973.876 502.062C973.606 503.34 973.053 504.455 972.216 505.409C971.389 506.354 970.318 507.091 969.005 507.622C967.7 508.144 966.193 508.405 964.484 508.405ZM986.544 508V487.273H992.293V508H986.544ZM989.432 484.601C988.577 484.601 987.844 484.317 987.232 483.751C986.629 483.175 986.328 482.487 986.328 481.686C986.328 480.894 986.629 480.215 987.232 479.648C987.844 479.073 988.577 478.785 989.432 478.785C990.286 478.785 991.015 479.073 991.618 479.648C992.23 480.215 992.536 480.894 992.536 481.686C992.536 482.487 992.23 483.175 991.618 483.751C991.015 484.317 990.286 484.601 989.432 484.601ZM1002.65 496.017V508H996.898V487.273H1002.38V490.93H1002.62C1003.08 489.724 1003.85 488.771 1004.93 488.069C1006.01 487.358 1007.32 487.003 1008.85 487.003C1010.29 487.003 1011.55 487.318 1012.62 487.947C1013.69 488.577 1014.52 489.477 1015.11 490.646C1015.71 491.807 1016.01 493.192 1016.01 494.803V508H1010.26V495.828C1010.27 494.56 1009.94 493.57 1009.29 492.859C1008.63 492.14 1007.72 491.78 1006.57 491.78C1005.8 491.78 1005.12 491.946 1004.52 492.279C1003.94 492.612 1003.48 493.098 1003.15 493.737C1002.82 494.366 1002.66 495.126 1002.65 496.017ZM1023.9 508.351C1023.01 508.351 1022.24 508.036 1021.6 507.406C1020.97 506.768 1020.66 506.003 1020.66 505.112C1020.66 504.231 1020.97 503.475 1021.6 502.845C1022.24 502.215 1023.01 501.901 1023.9 501.901C1024.76 501.901 1025.52 502.215 1026.16 502.845C1026.81 503.475 1027.13 504.231 1027.13 505.112C1027.13 505.706 1026.98 506.25 1026.68 506.745C1026.38 507.231 1025.99 507.622 1025.5 507.919C1025.02 508.207 1024.48 508.351 1023.9 508.351ZM1023.9 493.831C1023.01 493.831 1022.24 493.516 1021.6 492.886C1020.97 492.257 1020.66 491.492 1020.66 490.592C1020.66 489.711 1020.97 488.96 1021.6 488.339C1022.24 487.709 1023.01 487.394 1023.9 487.394C1024.76 487.394 1025.52 487.709 1026.16 488.339C1026.81 488.96 1027.13 489.711 1027.13 490.592C1027.13 491.195 1026.98 491.744 1026.68 492.239C1026.38 492.724 1025.99 493.111 1025.5 493.399C1025.02 493.687 1024.48 493.831 1023.9 493.831ZM1040.65 515.773V487.273H1046.32V490.754H1046.57C1046.83 490.196 1047.19 489.63 1047.67 489.054C1048.15 488.469 1048.78 487.983 1049.56 487.597C1050.34 487.201 1051.31 487.003 1052.47 487.003C1053.98 487.003 1055.38 487.399 1056.65 488.19C1057.93 488.973 1058.95 490.156 1059.72 491.739C1060.48 493.314 1060.86 495.288 1060.86 497.663C1060.86 499.975 1060.49 501.928 1059.74 503.52C1059.01 505.103 1058 506.304 1056.72 507.123C1055.45 507.933 1054.03 508.337 1052.46 508.337C1051.34 508.337 1050.39 508.153 1049.61 507.784C1048.84 507.415 1048.2 506.952 1047.71 506.394C1047.21 505.827 1046.83 505.256 1046.57 504.68H1046.4V515.773H1040.65ZM1046.28 497.636C1046.28 498.869 1046.45 499.944 1046.79 500.862C1047.13 501.779 1047.63 502.494 1048.27 503.007C1048.92 503.511 1049.71 503.763 1050.64 503.763C1051.57 503.763 1052.36 503.506 1053.01 502.994C1053.66 502.472 1054.15 501.752 1054.48 500.835C1054.82 499.908 1054.99 498.842 1054.99 497.636C1054.99 496.44 1054.83 495.387 1054.49 494.479C1054.16 493.57 1053.67 492.859 1053.02 492.347C1052.38 491.834 1051.58 491.577 1050.64 491.577C1049.7 491.577 1048.91 491.825 1048.26 492.32C1047.62 492.814 1047.13 493.516 1046.79 494.425C1046.45 495.333 1046.28 496.404 1046.28 497.636ZM1064.7 508V487.273H1070.27V490.889H1070.49C1070.86 489.603 1071.5 488.631 1072.39 487.974C1073.28 487.309 1074.3 486.976 1075.46 486.976C1075.75 486.976 1076.06 486.994 1076.4 487.03C1076.73 487.066 1077.02 487.115 1077.27 487.178V492.279C1077 492.198 1076.63 492.126 1076.15 492.063C1075.68 492 1075.24 491.969 1074.84 491.969C1074 491.969 1073.24 492.153 1072.58 492.522C1071.92 492.882 1071.4 493.386 1071.01 494.033C1070.63 494.681 1070.44 495.428 1070.44 496.273V508H1064.7ZM1088.65 508.405C1086.55 508.405 1084.74 507.96 1083.21 507.069C1081.69 506.169 1080.51 504.919 1079.69 503.317C1078.86 501.707 1078.44 499.84 1078.44 497.717C1078.44 495.576 1078.86 493.705 1079.69 492.104C1080.51 490.493 1081.69 489.243 1083.21 488.352C1084.74 487.453 1086.55 487.003 1088.65 487.003C1090.74 487.003 1092.55 487.453 1094.07 488.352C1095.6 489.243 1096.78 490.493 1097.61 492.104C1098.43 493.705 1098.85 495.576 1098.85 497.717C1098.85 499.84 1098.43 501.707 1097.61 503.317C1096.78 504.919 1095.6 506.169 1094.07 507.069C1092.55 507.96 1090.74 508.405 1088.65 508.405ZM1088.67 503.952C1089.63 503.952 1090.42 503.682 1091.06 503.142C1091.7 502.593 1092.18 501.847 1092.5 500.902C1092.84 499.957 1093 498.882 1093 497.677C1093 496.471 1092.84 495.396 1092.5 494.452C1092.18 493.507 1091.7 492.76 1091.06 492.212C1090.42 491.663 1089.63 491.388 1088.67 491.388C1087.71 491.388 1086.9 491.663 1086.24 492.212C1085.6 492.76 1085.11 493.507 1084.77 494.452C1084.45 495.396 1084.29 496.471 1084.29 497.677C1084.29 498.882 1084.45 499.957 1084.77 500.902C1085.11 501.847 1085.6 502.593 1086.24 503.142C1086.9 503.682 1087.71 503.952 1088.67 503.952ZM1102.59 515.773V487.273H1108.25V490.754H1108.51C1108.76 490.196 1109.13 489.63 1109.6 489.054C1110.09 488.469 1110.72 487.983 1111.49 487.597C1112.27 487.201 1113.25 487.003 1114.41 487.003C1115.92 487.003 1117.31 487.399 1118.59 488.19C1119.87 488.973 1120.89 490.156 1121.65 491.739C1122.42 493.314 1122.8 495.288 1122.8 497.663C1122.8 499.975 1122.43 501.928 1121.68 503.52C1120.94 505.103 1119.93 506.304 1118.66 507.123C1117.39 507.933 1115.97 508.337 1114.39 508.337C1113.28 508.337 1112.33 508.153 1111.55 507.784C1110.77 507.415 1110.14 506.952 1109.64 506.394C1109.15 505.827 1108.77 505.256 1108.51 504.68H1108.33V515.773H1102.59ZM1108.21 497.636C1108.21 498.869 1108.38 499.944 1108.72 500.862C1109.07 501.779 1109.56 502.494 1110.21 503.007C1110.86 503.511 1111.64 503.763 1112.57 503.763C1113.51 503.763 1114.3 503.506 1114.95 502.994C1115.59 502.472 1116.08 501.752 1116.42 500.835C1116.76 499.908 1116.93 498.842 1116.93 497.636C1116.93 496.44 1116.76 495.387 1116.43 494.479C1116.1 493.57 1115.61 492.859 1114.96 492.347C1114.31 491.834 1113.52 491.577 1112.57 491.577C1111.64 491.577 1110.84 491.825 1110.2 492.32C1109.56 492.814 1109.07 493.516 1108.72 494.425C1108.38 495.333 1108.21 496.404 1108.21 497.636ZM1143.88 493.183L1138.61 493.507C1138.52 493.057 1138.33 492.652 1138.03 492.293C1137.74 491.924 1137.35 491.631 1136.86 491.415C1136.38 491.191 1135.81 491.078 1135.15 491.078C1134.26 491.078 1133.51 491.267 1132.89 491.645C1132.28 492.014 1131.98 492.509 1131.98 493.129C1131.98 493.624 1132.17 494.042 1132.57 494.384C1132.97 494.726 1133.64 495 1134.61 495.207L1138.36 495.963C1140.37 496.377 1141.88 497.043 1142.87 497.96C1143.86 498.878 1144.35 500.083 1144.35 501.577C1144.35 502.935 1143.95 504.127 1143.15 505.153C1142.36 506.178 1141.27 506.979 1139.88 507.555C1138.51 508.121 1136.92 508.405 1135.12 508.405C1132.38 508.405 1130.19 507.834 1128.56 506.691C1126.94 505.54 1125.99 503.974 1125.71 501.995L1131.37 501.698C1131.54 502.535 1131.95 503.174 1132.61 503.614C1133.27 504.046 1134.11 504.262 1135.13 504.262C1136.14 504.262 1136.95 504.069 1137.56 503.682C1138.18 503.286 1138.5 502.778 1138.51 502.157C1138.5 501.635 1138.28 501.208 1137.85 500.875C1137.41 500.533 1136.75 500.272 1135.85 500.092L1132.26 499.377C1130.23 498.972 1128.73 498.271 1127.74 497.272C1126.76 496.273 1126.27 495 1126.27 493.453C1126.27 492.122 1126.63 490.975 1127.35 490.012C1128.08 489.049 1129.1 488.307 1130.41 487.786C1131.73 487.264 1133.28 487.003 1135.05 487.003C1137.67 487.003 1139.73 487.556 1141.23 488.663C1142.74 489.769 1143.63 491.276 1143.88 493.183Z" fill="#5B44E9"/>
<path d="M387.74 824.405C385.608 824.405 383.773 823.973 382.234 823.109C380.705 822.237 379.527 821.004 378.699 819.412C377.871 817.811 377.457 815.917 377.457 813.731C377.457 811.599 377.871 809.728 378.699 808.117C379.527 806.507 380.692 805.252 382.194 804.352C383.705 803.453 385.478 803.003 387.511 803.003C388.878 803.003 390.151 803.223 391.33 803.664C392.517 804.096 393.552 804.748 394.433 805.621C395.324 806.493 396.017 807.591 396.511 808.913C397.006 810.227 397.254 811.765 397.254 813.528V815.107H379.751V811.545H391.842C391.842 810.717 391.662 809.984 391.303 809.345C390.943 808.706 390.443 808.207 389.805 807.847C389.175 807.478 388.442 807.294 387.605 807.294C386.732 807.294 385.959 807.496 385.284 807.901C384.618 808.297 384.097 808.832 383.719 809.507C383.341 810.173 383.147 810.915 383.138 811.734V815.121C383.138 816.146 383.327 817.032 383.705 817.779C384.092 818.526 384.636 819.102 385.338 819.506C386.04 819.911 386.872 820.114 387.835 820.114C388.473 820.114 389.058 820.024 389.589 819.844C390.12 819.664 390.574 819.394 390.952 819.034C391.33 818.674 391.617 818.233 391.815 817.712L397.132 818.062C396.862 819.34 396.309 820.455 395.472 821.409C394.645 822.354 393.574 823.091 392.261 823.622C390.956 824.144 389.449 824.405 387.74 824.405ZM419.772 803.273L412.526 824H406.048L398.802 803.273H404.874L409.179 818.103H409.395L413.686 803.273H419.772ZM431.492 824.405C429.36 824.405 427.525 823.973 425.986 823.109C424.457 822.237 423.278 821.004 422.451 819.412C421.623 817.811 421.209 815.917 421.209 813.731C421.209 811.599 421.623 809.728 422.451 808.117C423.278 806.507 424.443 805.252 425.946 804.352C427.457 803.453 429.229 803.003 431.263 803.003C432.63 803.003 433.903 803.223 435.081 803.664C436.269 804.096 437.304 804.748 438.185 805.621C439.076 806.493 439.769 807.591 440.263 808.913C440.758 810.227 441.006 811.765 441.006 813.528V815.107H423.503V811.545H435.594C435.594 810.717 435.414 809.984 435.055 809.345C434.695 808.706 434.195 808.207 433.557 807.847C432.927 807.478 432.194 807.294 431.357 807.294C430.484 807.294 429.711 807.496 429.036 807.901C428.37 808.297 427.849 808.832 427.471 809.507C427.093 810.173 426.899 810.915 426.89 811.734V815.121C426.89 816.146 427.079 817.032 427.457 817.779C427.844 818.526 428.388 819.102 429.09 819.506C429.792 819.911 430.624 820.114 431.586 820.114C432.225 820.114 432.81 820.024 433.341 819.844C433.872 819.664 434.326 819.394 434.704 819.034C435.081 818.674 435.369 818.233 435.567 817.712L440.884 818.062C440.614 819.34 440.061 820.455 439.224 821.409C438.397 822.354 437.326 823.091 436.013 823.622C434.708 824.144 433.201 824.405 431.492 824.405ZM450.506 812.017V824H444.757V803.273H450.236V806.93H450.479C450.937 805.724 451.706 804.771 452.786 804.069C453.866 803.358 455.175 803.003 456.713 803.003C458.152 803.003 459.407 803.318 460.478 803.947C461.548 804.577 462.381 805.477 462.974 806.646C463.568 807.807 463.865 809.192 463.865 810.803V824H458.116V811.828C458.125 810.56 457.801 809.57 457.145 808.859C456.488 808.14 455.584 807.78 454.432 807.78C453.659 807.78 452.975 807.946 452.381 808.279C451.796 808.612 451.338 809.098 451.005 809.737C450.681 810.366 450.515 811.126 450.506 812.017ZM479.42 803.273V807.591H466.938V803.273H479.42ZM469.772 798.307H475.521V817.631C475.521 818.161 475.602 818.575 475.763 818.872C475.925 819.16 476.15 819.362 476.438 819.479C476.735 819.596 477.077 819.655 477.464 819.655C477.734 819.655 478.004 819.632 478.273 819.587C478.543 819.533 478.75 819.493 478.894 819.466L479.798 823.744C479.51 823.834 479.106 823.937 478.584 824.054C478.062 824.18 477.428 824.256 476.681 824.283C475.296 824.337 474.081 824.153 473.038 823.73C472.003 823.307 471.198 822.651 470.622 821.76C470.046 820.869 469.763 819.745 469.772 818.386V798.307ZM501.325 824.405C499.229 824.405 497.416 823.96 495.887 823.069C494.367 822.169 493.193 820.919 492.365 819.317C491.537 817.707 491.123 815.84 491.123 813.717C491.123 811.576 491.537 809.705 492.365 808.104C493.193 806.493 494.367 805.243 495.887 804.352C497.416 803.453 499.229 803.003 501.325 803.003C503.421 803.003 505.229 803.453 506.75 804.352C508.279 805.243 509.458 806.493 510.285 808.104C511.113 809.705 511.527 811.576 511.527 813.717C511.527 815.84 511.113 817.707 510.285 819.317C509.458 820.919 508.279 822.169 506.75 823.069C505.229 823.96 503.421 824.405 501.325 824.405ZM501.352 819.952C502.306 819.952 503.102 819.682 503.741 819.142C504.379 818.593 504.861 817.847 505.184 816.902C505.517 815.957 505.684 814.882 505.684 813.677C505.684 812.471 505.517 811.396 505.184 810.452C504.861 809.507 504.379 808.76 503.741 808.212C503.102 807.663 502.306 807.388 501.352 807.388C500.39 807.388 499.58 807.663 498.923 808.212C498.275 808.76 497.785 809.507 497.452 810.452C497.128 811.396 496.966 812.471 496.966 813.677C496.966 814.882 497.128 815.957 497.452 816.902C497.785 817.847 498.275 818.593 498.923 819.142C499.58 819.682 500.39 819.952 501.352 819.952ZM528.557 815.175V803.273H534.305V824H528.786V820.235H528.57C528.102 821.45 527.324 822.426 526.236 823.163C525.156 823.901 523.838 824.27 522.282 824.27C520.896 824.27 519.677 823.955 518.625 823.325C517.572 822.696 516.749 821.8 516.155 820.64C515.571 819.479 515.274 818.089 515.265 816.47V803.273H521.013V815.445C521.022 816.668 521.351 817.635 521.998 818.346C522.646 819.057 523.514 819.412 524.603 819.412C525.296 819.412 525.943 819.254 526.546 818.94C527.149 818.616 527.635 818.139 528.003 817.509C528.381 816.879 528.566 816.101 528.557 815.175ZM549.928 803.273V807.591H537.446V803.273H549.928ZM540.28 798.307H546.028V817.631C546.028 818.161 546.109 818.575 546.271 818.872C546.433 819.16 546.658 819.362 546.946 819.479C547.243 819.596 547.585 819.655 547.972 819.655C548.241 819.655 548.511 819.632 548.781 819.587C549.051 819.533 549.258 819.493 549.402 819.466L550.306 823.744C550.018 823.834 549.613 823.937 549.092 824.054C548.57 824.18 547.936 824.256 547.189 824.283C545.804 824.337 544.589 824.153 543.545 823.73C542.511 823.307 541.706 822.651 541.13 821.76C540.554 820.869 540.271 819.745 540.28 818.386V798.307ZM557.033 824.351C556.142 824.351 555.378 824.036 554.739 823.406C554.109 822.768 553.794 822.003 553.794 821.112C553.794 820.231 554.109 819.475 554.739 818.845C555.378 818.215 556.142 817.901 557.033 817.901C557.897 817.901 558.652 818.215 559.3 818.845C559.948 819.475 560.272 820.231 560.272 821.112C560.272 821.706 560.119 822.25 559.813 822.745C559.516 823.231 559.125 823.622 558.639 823.919C558.153 824.207 557.618 824.351 557.033 824.351ZM557.033 809.831C556.142 809.831 555.378 809.516 554.739 808.886C554.109 808.257 553.794 807.492 553.794 806.592C553.794 805.711 554.109 804.96 554.739 804.339C555.378 803.709 556.142 803.394 557.033 803.394C557.897 803.394 558.652 803.709 559.3 804.339C559.948 804.96 560.272 805.711 560.272 806.592C560.272 807.195 560.119 807.744 559.813 808.239C559.516 808.724 559.125 809.111 558.639 809.399C558.153 809.687 557.618 809.831 557.033 809.831ZM583.151 824.405C581.028 824.405 579.202 823.955 577.673 823.055C576.152 822.147 574.983 820.887 574.164 819.277C573.354 817.667 572.95 815.813 572.95 813.717C572.95 811.594 573.359 809.732 574.178 808.131C575.005 806.52 576.179 805.265 577.7 804.366C579.22 803.457 581.028 803.003 583.124 803.003C584.933 803.003 586.516 803.331 587.874 803.988C589.233 804.645 590.308 805.567 591.099 806.754C591.891 807.942 592.327 809.336 592.408 810.938H586.984C586.831 809.903 586.426 809.071 585.769 808.441C585.121 807.802 584.271 807.483 583.219 807.483C582.328 807.483 581.55 807.726 580.884 808.212C580.228 808.688 579.715 809.386 579.346 810.303C578.977 811.221 578.793 812.332 578.793 813.636C578.793 814.959 578.973 816.083 579.332 817.01C579.701 817.937 580.219 818.643 580.884 819.129C581.55 819.614 582.328 819.857 583.219 819.857C583.875 819.857 584.465 819.722 584.987 819.452C585.517 819.183 585.954 818.791 586.295 818.278C586.646 817.757 586.876 817.131 586.984 816.403H592.408C592.318 817.986 591.887 819.38 591.113 820.586C590.348 821.782 589.291 822.718 587.942 823.393C586.592 824.067 584.996 824.405 583.151 824.405ZM601.999 824.391C600.677 824.391 599.499 824.162 598.464 823.703C597.429 823.235 596.611 822.547 596.008 821.638C595.414 820.721 595.117 819.578 595.117 818.211C595.117 817.059 595.329 816.092 595.752 815.31C596.174 814.527 596.75 813.897 597.479 813.42C598.208 812.944 599.035 812.584 599.962 812.341C600.897 812.098 601.878 811.927 602.904 811.828C604.109 811.702 605.081 811.585 605.818 811.477C606.556 811.36 607.091 811.189 607.424 810.964C607.757 810.74 607.923 810.407 607.923 809.966V809.885C607.923 809.03 607.654 808.369 607.114 807.901C606.583 807.433 605.827 807.2 604.847 807.2C603.812 807.2 602.989 807.429 602.377 807.888C601.766 808.338 601.361 808.904 601.163 809.588L595.846 809.156C596.116 807.897 596.647 806.808 597.438 805.891C598.23 804.964 599.251 804.253 600.502 803.759C601.761 803.255 603.218 803.003 604.874 803.003C606.025 803.003 607.127 803.138 608.18 803.408C609.241 803.678 610.182 804.096 611 804.663C611.828 805.229 612.48 805.958 612.957 806.849C613.434 807.73 613.672 808.787 613.672 810.02V824H608.22V821.126H608.058C607.726 821.773 607.28 822.345 606.722 822.839C606.165 823.325 605.494 823.708 604.712 823.987C603.929 824.256 603.025 824.391 601.999 824.391ZM603.646 820.424C604.491 820.424 605.238 820.258 605.886 819.925C606.534 819.583 607.042 819.124 607.411 818.548C607.78 817.973 607.964 817.32 607.964 816.592V814.392C607.784 814.509 607.537 814.617 607.222 814.716C606.916 814.806 606.57 814.891 606.183 814.972C605.796 815.044 605.409 815.112 605.022 815.175C604.635 815.229 604.285 815.278 603.97 815.323C603.295 815.422 602.706 815.58 602.202 815.795C601.698 816.011 601.307 816.304 601.028 816.673C600.749 817.032 600.61 817.482 600.61 818.022C600.61 818.805 600.893 819.403 601.46 819.817C602.035 820.222 602.764 820.424 603.646 820.424ZM623.881 796.364V824H618.132V796.364H623.881ZM634.234 796.364V824H628.485V796.364H634.234ZM638.947 824V796.364H644.695V806.754H644.871C645.123 806.196 645.487 805.63 645.964 805.054C646.45 804.469 647.079 803.983 647.853 803.597C648.636 803.201 649.607 803.003 650.768 803.003C652.279 803.003 653.674 803.399 654.951 804.19C656.229 804.973 657.25 806.156 658.014 807.739C658.779 809.314 659.161 811.288 659.161 813.663C659.161 815.975 658.788 817.928 658.041 819.52C657.304 821.103 656.296 822.304 655.019 823.123C653.75 823.933 652.329 824.337 650.754 824.337C649.639 824.337 648.69 824.153 647.907 823.784C647.133 823.415 646.499 822.952 646.004 822.394C645.51 821.827 645.132 821.256 644.871 820.68H644.615V824H638.947ZM644.574 813.636C644.574 814.869 644.745 815.944 645.087 816.862C645.429 817.779 645.923 818.494 646.571 819.007C647.219 819.511 648.006 819.763 648.933 819.763C649.868 819.763 650.66 819.506 651.308 818.994C651.955 818.472 652.446 817.752 652.779 816.835C653.12 815.908 653.291 814.842 653.291 813.636C653.291 812.44 653.125 811.387 652.792 810.479C652.459 809.57 651.969 808.859 651.321 808.347C650.673 807.834 649.877 807.577 648.933 807.577C647.997 807.577 647.205 807.825 646.558 808.32C645.919 808.814 645.429 809.516 645.087 810.425C644.745 811.333 644.574 812.404 644.574 813.636ZM668.908 824.391C667.585 824.391 666.407 824.162 665.372 823.703C664.338 823.235 663.519 822.547 662.916 821.638C662.322 820.721 662.026 819.578 662.026 818.211C662.026 817.059 662.237 816.092 662.66 815.31C663.083 814.527 663.658 813.897 664.387 813.42C665.116 812.944 665.943 812.584 666.87 812.341C667.806 812.098 668.786 811.927 669.812 811.828C671.017 811.702 671.989 811.585 672.727 811.477C673.464 811.36 674 811.189 674.332 810.964C674.665 810.74 674.832 810.407 674.832 809.966V809.885C674.832 809.03 674.562 808.369 674.022 807.901C673.491 807.433 672.736 807.2 671.755 807.2C670.72 807.2 669.897 807.429 669.286 807.888C668.674 808.338 668.269 808.904 668.071 809.588L662.754 809.156C663.024 807.897 663.555 806.808 664.347 805.891C665.138 804.964 666.159 804.253 667.41 803.759C668.669 803.255 670.127 803.003 671.782 803.003C672.933 803.003 674.036 803.138 675.088 803.408C676.15 803.678 677.09 804.096 677.908 804.663C678.736 805.229 679.388 805.958 679.865 806.849C680.342 807.73 680.58 808.787 680.58 810.02V824H675.129V821.126H674.967C674.634 821.773 674.188 822.345 673.631 822.839C673.073 823.325 672.403 823.708 671.62 823.987C670.837 824.256 669.933 824.391 668.908 824.391ZM670.554 820.424C671.4 820.424 672.146 820.258 672.794 819.925C673.442 819.583 673.95 819.124 674.319 818.548C674.688 817.973 674.872 817.32 674.872 816.592V814.392C674.692 814.509 674.445 814.617 674.13 814.716C673.824 814.806 673.478 814.891 673.091 814.972C672.704 815.044 672.317 815.112 671.93 815.175C671.544 815.229 671.193 815.278 670.878 815.323C670.203 815.422 669.614 815.58 669.11 815.795C668.606 816.011 668.215 816.304 667.936 816.673C667.657 817.032 667.518 817.482 667.518 818.022C667.518 818.805 667.801 819.403 668.368 819.817C668.944 820.222 669.672 820.424 670.554 820.424ZM694.405 824.405C692.282 824.405 690.456 823.955 688.926 823.055C687.406 822.147 686.237 820.887 685.418 819.277C684.608 817.667 684.203 815.813 684.203 813.717C684.203 811.594 684.613 809.732 685.431 808.131C686.259 806.52 687.433 805.265 688.953 804.366C690.474 803.457 692.282 803.003 694.378 803.003C696.186 803.003 697.77 803.331 699.128 803.988C700.487 804.645 701.562 805.567 702.353 806.754C703.145 807.942 703.581 809.336 703.662 810.938H698.238C698.085 809.903 697.68 809.071 697.023 808.441C696.375 807.802 695.525 807.483 694.473 807.483C693.582 807.483 692.804 807.726 692.138 808.212C691.481 808.688 690.969 809.386 690.6 810.303C690.231 811.221 690.047 812.332 690.047 813.636C690.047 814.959 690.226 816.083 690.586 817.01C690.955 817.937 691.472 818.643 692.138 819.129C692.804 819.614 693.582 819.857 694.473 819.857C695.129 819.857 695.719 819.722 696.24 819.452C696.771 819.183 697.208 818.791 697.549 818.278C697.9 817.757 698.13 817.131 698.238 816.403H703.662C703.572 817.986 703.141 819.38 702.367 820.586C701.602 821.782 700.545 822.718 699.196 823.393C697.846 824.067 696.249 824.405 694.405 824.405ZM712.552 818.036L712.565 811.14H713.402L720.041 803.273H726.64L717.72 813.69H716.357L712.552 818.036ZM707.343 824V796.364H713.091V824H707.343ZM720.297 824L714.198 814.972L718.03 810.911L727.031 824H720.297Z" fill="#B35DE8"/>
<path d="M1068.74 594.405C1066.61 594.405 1064.77 593.973 1063.23 593.109C1061.71 592.237 1060.53 591.004 1059.7 589.412C1058.87 587.811 1058.46 585.917 1058.46 583.731C1058.46 581.599 1058.87 579.728 1059.7 578.117C1060.53 576.507 1061.69 575.252 1063.19 574.352C1064.71 573.453 1066.48 573.003 1068.51 573.003C1069.88 573.003 1071.15 573.223 1072.33 573.664C1073.52 574.096 1074.55 574.748 1075.43 575.621C1076.32 576.493 1077.02 577.591 1077.51 578.913C1078.01 580.227 1078.25 581.765 1078.25 583.528V585.107H1060.75V581.545H1072.84C1072.84 580.717 1072.66 579.984 1072.3 579.345C1071.94 578.706 1071.44 578.207 1070.8 577.847C1070.17 577.478 1069.44 577.294 1068.61 577.294C1067.73 577.294 1066.96 577.496 1066.28 577.901C1065.62 578.297 1065.1 578.832 1064.72 579.507C1064.34 580.173 1064.15 580.915 1064.14 581.734V585.121C1064.14 586.146 1064.33 587.032 1064.71 587.779C1065.09 588.526 1065.64 589.102 1066.34 589.506C1067.04 589.911 1067.87 590.114 1068.83 590.114C1069.47 590.114 1070.06 590.024 1070.59 589.844C1071.12 589.664 1071.57 589.394 1071.95 589.034C1072.33 588.674 1072.62 588.233 1072.82 587.712L1078.13 588.062C1077.86 589.34 1077.31 590.455 1076.47 591.409C1075.64 592.354 1074.57 593.091 1073.26 593.622C1071.96 594.144 1070.45 594.405 1068.74 594.405ZM1100.77 573.273L1093.53 594H1087.05L1079.8 573.273H1085.87L1090.18 588.103H1090.4L1094.69 573.273H1100.77ZM1112.49 594.405C1110.36 594.405 1108.52 593.973 1106.99 593.109C1105.46 592.237 1104.28 591.004 1103.45 589.412C1102.62 587.811 1102.21 585.917 1102.21 583.731C1102.21 581.599 1102.62 579.728 1103.45 578.117C1104.28 576.507 1105.44 575.252 1106.95 574.352C1108.46 573.453 1110.23 573.003 1112.26 573.003C1113.63 573.003 1114.9 573.223 1116.08 573.664C1117.27 574.096 1118.3 574.748 1119.19 575.621C1120.08 576.493 1120.77 577.591 1121.26 578.913C1121.76 580.227 1122.01 581.765 1122.01 583.528V585.107H1104.5V581.545H1116.59C1116.59 580.717 1116.41 579.984 1116.05 579.345C1115.69 578.706 1115.2 578.207 1114.56 577.847C1113.93 577.478 1113.19 577.294 1112.36 577.294C1111.48 577.294 1110.71 577.496 1110.04 577.901C1109.37 578.297 1108.85 578.832 1108.47 579.507C1108.09 580.173 1107.9 580.915 1107.89 581.734V585.121C1107.89 586.146 1108.08 587.032 1108.46 587.779C1108.84 588.526 1109.39 589.102 1110.09 589.506C1110.79 589.911 1111.62 590.114 1112.59 590.114C1113.23 590.114 1113.81 590.024 1114.34 589.844C1114.87 589.664 1115.33 589.394 1115.7 589.034C1116.08 588.674 1116.37 588.233 1116.57 587.712L1121.88 588.062C1121.61 589.34 1121.06 590.455 1120.22 591.409C1119.4 592.354 1118.33 593.091 1117.01 593.622C1115.71 594.144 1114.2 594.405 1112.49 594.405ZM1131.51 582.017V594H1125.76V573.273H1131.24V576.93H1131.48C1131.94 575.724 1132.71 574.771 1133.79 574.069C1134.87 573.358 1136.17 573.003 1137.71 573.003C1139.15 573.003 1140.41 573.318 1141.48 573.947C1142.55 574.577 1143.38 575.477 1143.97 576.646C1144.57 577.807 1144.86 579.192 1144.86 580.803V594H1139.12V581.828C1139.13 580.56 1138.8 579.57 1138.14 578.859C1137.49 578.14 1136.58 577.78 1135.43 577.78C1134.66 577.78 1133.97 577.946 1133.38 578.279C1132.8 578.612 1132.34 579.098 1132 579.737C1131.68 580.366 1131.51 581.126 1131.51 582.017ZM1160.42 573.273V577.591H1147.94V573.273H1160.42ZM1150.77 568.307H1156.52V587.631C1156.52 588.161 1156.6 588.575 1156.76 588.872C1156.93 589.16 1157.15 589.362 1157.44 589.479C1157.74 589.596 1158.08 589.655 1158.46 589.655C1158.73 589.655 1159 589.632 1159.27 589.587C1159.54 589.533 1159.75 589.493 1159.89 589.466L1160.8 593.744C1160.51 593.834 1160.11 593.937 1159.58 594.054C1159.06 594.18 1158.43 594.256 1157.68 594.283C1156.3 594.337 1155.08 594.153 1154.04 593.73C1153 593.307 1152.2 592.651 1151.62 591.76C1151.05 590.869 1150.76 589.745 1150.77 588.386V568.307ZM1172.96 594V573.273H1178.71V594H1172.96ZM1175.85 570.601C1174.99 570.601 1174.26 570.317 1173.65 569.751C1173.05 569.175 1172.74 568.487 1172.74 567.686C1172.74 566.894 1173.05 566.215 1173.65 565.648C1174.26 565.073 1174.99 564.785 1175.85 564.785C1176.7 564.785 1177.43 565.073 1178.03 565.648C1178.65 566.215 1178.95 566.894 1178.95 567.686C1178.95 568.487 1178.65 569.175 1178.03 569.751C1177.43 570.317 1176.7 570.601 1175.85 570.601ZM1189.06 582.017V594H1183.31V573.273H1188.79V576.93H1189.04C1189.49 575.724 1190.26 574.771 1191.34 574.069C1192.42 573.358 1193.73 573.003 1195.27 573.003C1196.71 573.003 1197.96 573.318 1199.03 573.947C1200.1 574.577 1200.94 575.477 1201.53 576.646C1202.12 577.807 1202.42 579.192 1202.42 580.803V594H1196.67V581.828C1196.68 580.56 1196.36 579.57 1195.7 578.859C1195.04 578.14 1194.14 577.78 1192.99 577.78C1192.22 577.78 1191.53 577.946 1190.94 578.279C1190.35 578.612 1189.89 579.098 1189.56 579.737C1189.24 580.366 1189.07 581.126 1189.06 582.017ZM1210.31 594.351C1209.42 594.351 1208.66 594.036 1208.02 593.406C1207.39 592.768 1207.07 592.003 1207.07 591.112C1207.07 590.231 1207.39 589.475 1208.02 588.845C1208.66 588.215 1209.42 587.901 1210.31 587.901C1211.18 587.901 1211.93 588.215 1212.58 588.845C1213.23 589.475 1213.55 590.231 1213.55 591.112C1213.55 591.706 1213.4 592.25 1213.09 592.745C1212.8 593.231 1212.4 593.622 1211.92 593.919C1211.43 594.207 1210.9 594.351 1210.31 594.351ZM1210.31 579.831C1209.42 579.831 1208.66 579.516 1208.02 578.886C1207.39 578.257 1207.07 577.492 1207.07 576.592C1207.07 575.711 1207.39 574.96 1208.02 574.339C1208.66 573.709 1209.42 573.394 1210.31 573.394C1211.18 573.394 1211.93 573.709 1212.58 574.339C1213.23 574.96 1213.55 575.711 1213.55 576.592C1213.55 577.195 1213.4 577.744 1213.09 578.239C1212.8 578.724 1212.4 579.111 1211.92 579.399C1211.43 579.687 1210.9 579.831 1210.31 579.831ZM1232 585.714V585.256C1232.01 583.681 1232.15 582.426 1232.42 581.491C1232.7 580.555 1233.11 579.799 1233.64 579.224C1234.17 578.648 1234.81 578.126 1235.55 577.658C1236.11 577.299 1236.61 576.925 1237.05 576.538C1237.49 576.152 1237.84 575.724 1238.1 575.256C1238.36 574.78 1238.5 574.249 1238.5 573.664C1238.5 573.043 1238.35 572.499 1238.05 572.031C1237.75 571.563 1237.35 571.204 1236.85 570.952C1236.35 570.7 1235.81 570.574 1235.2 570.574C1234.62 570.574 1234.06 570.704 1233.54 570.965C1233.02 571.217 1232.59 571.595 1232.26 572.099C1231.93 572.594 1231.75 573.21 1231.72 573.947H1226.22C1226.26 572.148 1226.69 570.664 1227.51 569.494C1228.33 568.316 1229.41 567.439 1230.76 566.863C1232.11 566.278 1233.6 565.986 1235.23 565.986C1237.02 565.986 1238.6 566.283 1239.98 566.876C1241.36 567.461 1242.44 568.311 1243.22 569.427C1244 570.542 1244.39 571.887 1244.39 573.462C1244.39 574.514 1244.22 575.45 1243.87 576.268C1243.52 577.078 1243.04 577.798 1242.42 578.428C1241.8 579.048 1241.07 579.611 1240.22 580.114C1239.51 580.537 1238.93 580.978 1238.47 581.437C1238.02 581.896 1237.68 582.426 1237.46 583.029C1237.24 583.632 1237.13 584.374 1237.12 585.256V585.714H1232ZM1234.68 594.351C1233.78 594.351 1233.01 594.036 1232.37 593.406C1231.74 592.768 1231.43 592.003 1231.44 591.112C1231.43 590.231 1231.74 589.475 1232.37 588.845C1233.01 588.215 1233.78 587.901 1234.68 587.901C1235.53 587.901 1236.28 588.215 1236.93 588.845C1237.58 589.475 1237.91 590.231 1237.91 591.112C1237.91 591.706 1237.75 592.25 1237.44 592.745C1237.15 593.231 1236.75 593.622 1236.27 593.919C1235.78 594.207 1235.25 594.351 1234.68 594.351Z" fill="#B35DE8"/>
<path d="M996.818 759.182C998.575 760.939 1001.42 760.939 1003.18 759.182L1031.82 730.544C1033.58 728.787 1033.58 725.938 1031.82 724.18C1030.06 722.423 1027.21 722.423 1025.46 724.18L1000 749.636L974.544 724.18C972.787 722.423 969.938 722.423 968.18 724.18C966.423 725.938 966.423 728.787 968.18 730.544L996.818 759.182ZM995.5 530L995.5 756L1004.5 756L1004.5 530L995.5 530Z" fill="#5B44E9" fill-opacity="0.6"/>
<path d="M1154.82 759.182C1156.58 760.939 1159.42 760.939 1161.18 759.182L1189.82 730.544C1191.58 728.787 1191.58 725.938 1189.82 724.18C1188.06 722.423 1185.21 722.423 1183.46 724.18L1158 749.636L1132.54 724.18C1130.79 722.423 1127.94 722.423 1126.18 724.18C1124.42 725.938 1124.42 728.787 1126.18 730.544L1154.82 759.182ZM1153.5 614L1153.5 756L1162.5 756L1162.5 614L1153.5 614Z" fill="#B35DE8" fill-opacity="0.6"/>
<path d="M749.818 807.818C748.061 809.575 748.061 812.425 749.818 814.182L778.456 842.82C780.213 844.577 783.062 844.577 784.82 842.82C786.577 841.062 786.577 838.213 784.82 836.456L759.364 811L784.82 785.544C786.577 783.787 786.577 780.938 784.82 779.18C783.062 777.423 780.213 777.423 778.456 779.18L749.818 807.818ZM924 806.5L753 806.5L753 815.5L924 815.5L924 806.5Z" fill="#B35DE8" fill-opacity="0.6"/>
<path d="M711.756 133.182L704.128 155H697.31L689.682 133.182H696.074L700.605 148.793H700.832L705.349 133.182H711.756ZM720.488 155.412C719.096 155.412 717.855 155.17 716.766 154.688C715.677 154.195 714.816 153.471 714.181 152.514C713.556 151.548 713.244 150.346 713.244 148.906C713.244 147.694 713.466 146.676 713.911 145.852C714.356 145.028 714.962 144.366 715.729 143.864C716.496 143.362 717.368 142.983 718.343 142.727C719.328 142.472 720.36 142.292 721.44 142.188C722.709 142.055 723.731 141.932 724.508 141.818C725.284 141.695 725.848 141.515 726.198 141.278C726.549 141.042 726.724 140.691 726.724 140.227V140.142C726.724 139.242 726.44 138.546 725.871 138.054C725.313 137.562 724.517 137.315 723.485 137.315C722.396 137.315 721.53 137.557 720.886 138.04C720.242 138.513 719.816 139.11 719.607 139.83L714.011 139.375C714.295 138.049 714.853 136.903 715.687 135.938C716.52 134.962 717.595 134.214 718.911 133.693C720.237 133.163 721.771 132.898 723.513 132.898C724.726 132.898 725.886 133.04 726.994 133.324C728.111 133.608 729.101 134.048 729.962 134.645C730.834 135.241 731.52 136.009 732.022 136.946C732.524 137.874 732.775 138.987 732.775 140.284V155H727.036V151.974H726.866C726.515 152.656 726.047 153.258 725.46 153.778C724.872 154.29 724.167 154.692 723.343 154.986C722.519 155.27 721.567 155.412 720.488 155.412ZM722.221 151.236C723.111 151.236 723.897 151.061 724.579 150.71C725.261 150.35 725.796 149.867 726.184 149.261C726.572 148.655 726.766 147.969 726.766 147.202V144.886C726.577 145.009 726.317 145.123 725.985 145.227C725.663 145.322 725.299 145.412 724.891 145.497C724.484 145.573 724.077 145.644 723.67 145.71C723.263 145.767 722.893 145.819 722.562 145.866C721.852 145.971 721.231 146.136 720.701 146.364C720.171 146.591 719.759 146.899 719.465 147.287C719.172 147.666 719.025 148.139 719.025 148.707C719.025 149.531 719.323 150.161 719.92 150.597C720.526 151.023 721.293 151.236 722.221 151.236ZM743.521 125.909V155H737.469V125.909H743.521ZM762.359 145.71V133.182H768.411V155H762.601V151.037H762.374C761.881 152.315 761.062 153.343 759.916 154.119C758.78 154.896 757.393 155.284 755.754 155.284C754.296 155.284 753.013 154.953 751.905 154.29C750.797 153.627 749.93 152.685 749.305 151.463C748.69 150.241 748.377 148.778 748.368 147.074V133.182H754.419V145.994C754.429 147.282 754.774 148.3 755.456 149.048C756.138 149.796 757.052 150.17 758.197 150.17C758.927 150.17 759.608 150.005 760.243 149.673C760.877 149.332 761.389 148.83 761.777 148.168C762.175 147.505 762.369 146.686 762.359 145.71ZM783.194 155.426C780.95 155.426 779.018 154.972 777.398 154.062C775.789 153.144 774.548 151.847 773.677 150.17C772.806 148.485 772.37 146.491 772.37 144.19C772.37 141.946 772.806 139.976 773.677 138.281C774.548 136.586 775.774 135.265 777.356 134.318C778.947 133.371 780.812 132.898 782.952 132.898C784.392 132.898 785.732 133.13 786.972 133.594C788.222 134.048 789.311 134.735 790.239 135.653C791.177 136.572 791.906 137.727 792.427 139.119C792.948 140.502 793.208 142.121 793.208 143.977V145.639H774.785V141.889H787.512C787.512 141.018 787.323 140.246 786.944 139.574C786.565 138.902 786.04 138.376 785.367 137.997C784.704 137.609 783.933 137.415 783.052 137.415C782.133 137.415 781.319 137.628 780.609 138.054C779.908 138.471 779.359 139.034 778.961 139.744C778.563 140.445 778.36 141.226 778.35 142.088V145.653C778.35 146.733 778.549 147.666 778.947 148.452C779.354 149.238 779.927 149.844 780.665 150.27C781.404 150.696 782.28 150.909 783.293 150.909C783.966 150.909 784.581 150.814 785.14 150.625C785.699 150.436 786.177 150.152 786.575 149.773C786.972 149.394 787.275 148.93 787.484 148.381L793.08 148.75C792.796 150.095 792.214 151.269 791.333 152.273C790.462 153.267 789.335 154.044 787.952 154.602C786.579 155.152 784.993 155.426 783.194 155.426ZM815.31 139.403L809.771 139.744C809.676 139.271 809.472 138.845 809.16 138.466C808.847 138.078 808.435 137.77 807.924 137.543C807.422 137.306 806.821 137.188 806.12 137.188C805.183 137.188 804.392 137.386 803.748 137.784C803.104 138.172 802.782 138.693 802.782 139.347C802.782 139.867 802.99 140.308 803.407 140.668C803.824 141.027 804.539 141.316 805.552 141.534L809.501 142.33C811.622 142.765 813.203 143.466 814.245 144.432C815.287 145.398 815.808 146.667 815.808 148.239C815.808 149.669 815.386 150.923 814.543 152.003C813.71 153.082 812.564 153.925 811.106 154.531C809.657 155.128 807.986 155.426 806.092 155.426C803.203 155.426 800.902 154.825 799.188 153.622C797.484 152.41 796.485 150.762 796.191 148.679L802.143 148.366C802.323 149.247 802.758 149.92 803.45 150.384C804.141 150.838 805.026 151.065 806.106 151.065C807.166 151.065 808.019 150.862 808.663 150.455C809.316 150.038 809.647 149.503 809.657 148.849C809.647 148.3 809.415 147.85 808.961 147.5C808.506 147.14 807.806 146.866 806.859 146.676L803.08 145.923C800.95 145.497 799.363 144.759 798.322 143.707C797.29 142.656 796.773 141.316 796.773 139.688C796.773 138.286 797.152 137.079 797.91 136.065C798.677 135.052 799.752 134.271 801.134 133.722C802.526 133.172 804.155 132.898 806.021 132.898C808.776 132.898 810.945 133.48 812.526 134.645C814.117 135.81 815.045 137.396 815.31 139.403Z" fill="#5B44E9"/>
<path d="M701.358 219.426C699.114 219.426 697.182 218.972 695.562 218.062C693.953 217.144 692.712 215.847 691.841 214.17C690.97 212.485 690.534 210.491 690.534 208.19C690.534 205.946 690.97 203.976 691.841 202.281C692.712 200.586 693.938 199.265 695.52 198.318C697.111 197.371 698.976 196.898 701.116 196.898C702.556 196.898 703.896 197.13 705.136 197.594C706.386 198.048 707.475 198.735 708.403 199.653C709.341 200.572 710.07 201.727 710.591 203.119C711.112 204.502 711.372 206.121 711.372 207.977V209.639H692.949V205.889H705.676C705.676 205.018 705.487 204.246 705.108 203.574C704.729 202.902 704.204 202.376 703.531 201.997C702.868 201.609 702.097 201.415 701.216 201.415C700.297 201.415 699.483 201.628 698.773 202.054C698.072 202.471 697.523 203.034 697.125 203.744C696.727 204.445 696.524 205.226 696.514 206.088V209.653C696.514 210.733 696.713 211.666 697.111 212.452C697.518 213.238 698.091 213.844 698.83 214.27C699.568 214.696 700.444 214.909 701.457 214.909C702.13 214.909 702.745 214.814 703.304 214.625C703.863 214.436 704.341 214.152 704.739 213.773C705.136 213.394 705.439 212.93 705.648 212.381L711.244 212.75C710.96 214.095 710.378 215.269 709.497 216.273C708.626 217.267 707.499 218.044 706.116 218.602C704.743 219.152 703.157 219.426 701.358 219.426ZM735.076 197.182L727.448 219H720.63L713.002 197.182H719.394L723.925 212.793H724.153L728.67 197.182H735.076ZM747.413 219.426C745.168 219.426 743.237 218.972 741.617 218.062C740.007 217.144 738.767 215.847 737.896 214.17C737.024 212.485 736.589 210.491 736.589 208.19C736.589 205.946 737.024 203.976 737.896 202.281C738.767 200.586 739.993 199.265 741.575 198.318C743.165 197.371 745.031 196.898 747.171 196.898C748.611 196.898 749.951 197.13 751.191 197.594C752.441 198.048 753.53 198.735 754.458 199.653C755.396 200.572 756.125 201.727 756.646 203.119C757.166 204.502 757.427 206.121 757.427 207.977V209.639H739.004V205.889H751.731C751.731 205.018 751.541 204.246 751.163 203.574C750.784 202.902 750.258 202.376 749.586 201.997C748.923 201.609 748.151 201.415 747.271 201.415C746.352 201.415 745.538 201.628 744.827 202.054C744.127 202.471 743.577 203.034 743.18 203.744C742.782 204.445 742.578 205.226 742.569 206.088V209.653C742.569 210.733 742.768 211.666 743.165 212.452C743.573 213.238 744.146 213.844 744.884 214.27C745.623 214.696 746.499 214.909 747.512 214.909C748.184 214.909 748.8 214.814 749.359 214.625C749.917 214.436 750.396 214.152 750.793 213.773C751.191 213.394 751.494 212.93 751.702 212.381L757.299 212.75C757.015 214.095 756.433 215.269 755.552 216.273C754.681 217.267 753.554 218.044 752.171 218.602C750.798 219.152 749.212 219.426 747.413 219.426ZM767.427 206.386V219H761.376V197.182H767.143V201.031H767.398C767.881 199.762 768.691 198.759 769.827 198.02C770.964 197.272 772.342 196.898 773.961 196.898C775.476 196.898 776.797 197.229 777.924 197.892C779.051 198.555 779.927 199.502 780.552 200.733C781.177 201.955 781.489 203.413 781.489 205.108V219H775.438V206.188C775.448 204.852 775.107 203.811 774.415 203.062C773.724 202.305 772.772 201.926 771.56 201.926C770.746 201.926 770.026 202.101 769.401 202.452C768.786 202.802 768.303 203.313 767.952 203.986C767.612 204.649 767.436 205.449 767.427 206.386ZM797.864 197.182V201.727H784.724V197.182H797.864ZM787.707 191.955H793.759V212.295C793.759 212.854 793.844 213.29 794.014 213.602C794.185 213.905 794.421 214.118 794.724 214.241C795.037 214.365 795.397 214.426 795.804 214.426C796.088 214.426 796.372 214.402 796.656 214.355C796.94 214.298 797.158 214.256 797.31 214.227L798.261 218.73C797.958 218.825 797.532 218.934 796.983 219.057C796.434 219.189 795.766 219.27 794.98 219.298C793.522 219.355 792.243 219.161 791.145 218.716C790.056 218.271 789.208 217.58 788.602 216.642C787.996 215.705 787.698 214.521 787.707 213.091V191.955ZM819.685 203.403L814.146 203.744C814.051 203.271 813.847 202.845 813.535 202.466C813.222 202.078 812.81 201.77 812.299 201.543C811.797 201.306 811.196 201.188 810.495 201.188C809.558 201.188 808.767 201.386 808.123 201.784C807.479 202.172 807.157 202.693 807.157 203.347C807.157 203.867 807.365 204.308 807.782 204.668C808.199 205.027 808.914 205.316 809.927 205.534L813.876 206.33C815.997 206.765 817.578 207.466 818.62 208.432C819.662 209.398 820.183 210.667 820.183 212.239C820.183 213.669 819.761 214.923 818.918 216.003C818.085 217.082 816.939 217.925 815.481 218.531C814.032 219.128 812.361 219.426 810.467 219.426C807.578 219.426 805.277 218.825 803.563 217.622C801.859 216.41 800.86 214.762 800.566 212.679L806.518 212.366C806.698 213.247 807.133 213.92 807.825 214.384C808.516 214.838 809.401 215.065 810.481 215.065C811.541 215.065 812.394 214.862 813.038 214.455C813.691 214.038 814.022 213.503 814.032 212.849C814.022 212.3 813.79 211.85 813.336 211.5C812.881 211.14 812.181 210.866 811.234 210.676L807.455 209.923C805.325 209.497 803.738 208.759 802.697 207.707C801.665 206.656 801.148 205.316 801.148 203.688C801.148 202.286 801.527 201.079 802.285 200.065C803.052 199.052 804.127 198.271 805.509 197.722C806.901 197.172 808.53 196.898 810.396 196.898C813.151 196.898 815.32 197.48 816.901 198.645C818.492 199.81 819.42 201.396 819.685 203.403Z" fill="#B35DE8"/>
<path d="M868.818 200.818C867.061 202.575 867.061 205.425 868.818 207.182L897.456 235.82C899.213 237.577 902.062 237.577 903.82 235.82C905.577 234.062 905.577 231.213 903.82 229.456L878.364 204L903.82 178.544C905.577 176.787 905.577 173.938 903.82 172.18C902.062 170.423 899.213 170.423 897.456 172.18L868.818 200.818ZM1016 199.5L872 199.5L872 208.5L1016 208.5L1016 199.5Z" fill="#B35DE8" fill-opacity="0.6"/>
<path d="M1019.18 143.182C1020.94 141.425 1020.94 138.575 1019.18 136.818L990.544 108.18C988.787 106.423 985.938 106.423 984.18 108.18C982.423 109.938 982.423 112.787 984.18 114.544L1009.64 140L984.18 165.456C982.423 167.213 982.423 170.062 984.18 171.82C985.938 173.577 988.787 173.577 990.544 171.82L1019.18 143.182ZM874 144.5H1016V135.5H874V144.5Z" fill="#5B44E9" fill-opacity="0.6"/>
<defs>
<filter id="filter0_b_2054_819" x="310" y="399" width="1087" height="683" filterUnits="userSpaceOnUse" color-interpolation-filters="sRGB">
<feFlood flood-opacity="0" result="BackgroundImageFix"/>
<feGaussianBlur in="BackgroundImageFix" stdDeviation="2"/>
<feComposite in2="SourceAlpha" operator="in" result="effect1_backgroundBlur_2054_819"/>
<feBlend mode="normal" in="SourceGraphic" in2="effect1_backgroundBlur_2054_819" result="shape"/>
</filter>
<filter id="filter1_b_2054_819" x="831" y="693" width="452" height="323" filterUnits="userSpaceOnUse" color-interpolation-filters="sRGB">
<feFlood flood-opacity="0" result="BackgroundImageFix"/>
<feGaussianBlur in="BackgroundImageFix" stdDeviation="2"/>
<feComposite in2="SourceAlpha" operator="in" result="effect1_backgroundBlur_2054_819"/>
<feBlend mode="normal" in="SourceGraphic" in2="effect1_backgroundBlur_2054_819" result="shape"/>
</filter>
</defs>
</svg>
