<svg width="2116" height="1261" viewBox="0 0 2116 1261" fill="none" xmlns="http://www.w3.org/2000/svg">
<rect width="2116" height="1261" fill="#070823"/>
<g filter="url(#filter0_b_2046_1548)">
<rect x="159" y="410.997" width="738" height="675" rx="30" fill="white" fill-opacity="0.1"/>
<rect x="161" y="412.997" width="734" height="671" rx="28" stroke="white" stroke-opacity="0.1" stroke-width="4"/>
</g>
<g filter="url(#filter1_b_2046_1548)">
<rect x="407.01" y="636" width="444" height="411" rx="30" fill="white" fill-opacity="0.1"/>
<rect x="409.01" y="638" width="440" height="407" rx="28" stroke="white" stroke-opacity="0.1" stroke-width="4"/>
</g>
<path d="M160.257 397.997V368.178H172.574C174.807 368.178 176.733 368.615 178.354 369.489C179.985 370.353 181.242 371.561 182.125 373.114C183.009 374.657 183.45 376.453 183.45 378.501C183.45 380.559 182.999 382.36 182.096 383.903C181.203 385.436 179.927 386.625 178.267 387.47C176.607 388.314 174.637 388.737 172.356 388.737H164.756V383.058H171.016C172.103 383.058 173.011 382.869 173.739 382.491C174.477 382.112 175.035 381.583 175.413 380.904C175.792 380.214 175.981 379.414 175.981 378.501C175.981 377.579 175.792 376.783 175.413 376.113C175.035 375.434 174.477 374.91 173.739 374.541C173.001 374.172 172.094 373.988 171.016 373.988H167.464V397.997H160.257ZM192.506 398.375C191.08 398.375 189.813 398.137 188.706 397.662C187.609 397.176 186.741 396.448 186.1 395.478C185.469 394.497 185.154 393.27 185.154 391.794C185.154 390.552 185.372 389.503 185.809 388.649C186.246 387.795 186.848 387.101 187.614 386.567C188.381 386.033 189.264 385.631 190.264 385.359C191.264 385.077 192.332 384.888 193.467 384.791C194.739 384.674 195.763 384.553 196.539 384.427C197.316 384.291 197.879 384.102 198.228 383.859C198.587 383.607 198.767 383.252 198.767 382.796V382.723C198.767 381.976 198.51 381.399 197.995 380.991C197.481 380.583 196.787 380.379 195.913 380.379C194.972 380.379 194.215 380.583 193.642 380.991C193.069 381.399 192.705 381.962 192.55 382.68L185.984 382.447C186.178 381.088 186.678 379.875 187.483 378.807C188.299 377.73 189.415 376.885 190.832 376.274C192.259 375.652 193.972 375.342 195.972 375.342C197.398 375.342 198.714 375.512 199.917 375.851C201.121 376.181 202.169 376.667 203.062 377.307C203.955 377.938 204.644 378.715 205.13 379.637C205.625 380.559 205.872 381.612 205.872 382.796V397.997H199.175V394.881H199C198.602 395.638 198.092 396.279 197.471 396.803C196.86 397.327 196.137 397.72 195.302 397.982C194.477 398.244 193.545 398.375 192.506 398.375ZM194.705 393.716C195.472 393.716 196.161 393.561 196.772 393.25C197.394 392.94 197.889 392.512 198.257 391.969C198.626 391.416 198.811 390.775 198.811 390.047V387.921C198.607 388.028 198.359 388.125 198.068 388.212C197.787 388.3 197.476 388.382 197.136 388.46C196.797 388.538 196.447 388.606 196.088 388.664C195.729 388.722 195.384 388.775 195.054 388.824C194.385 388.931 193.812 389.096 193.336 389.319C192.87 389.542 192.511 389.833 192.259 390.193C192.016 390.542 191.895 390.959 191.895 391.445C191.895 392.182 192.157 392.745 192.681 393.134C193.215 393.522 193.89 393.716 194.705 393.716ZM210.225 397.997V375.633H217.141V379.71H217.374C217.782 378.234 218.447 377.137 219.369 376.419C220.291 375.691 221.364 375.327 222.587 375.327C222.917 375.327 223.256 375.351 223.606 375.4C223.955 375.439 224.28 375.502 224.581 375.589V381.777C224.242 381.661 223.795 381.568 223.242 381.5C222.698 381.433 222.213 381.399 221.786 381.399C220.941 381.399 220.179 381.588 219.5 381.966C218.83 382.335 218.301 382.855 217.913 383.524C217.534 384.184 217.345 384.961 217.345 385.854V397.997H210.225ZM236.775 398.419C234.436 398.419 232.417 397.958 230.718 397.036C229.029 396.104 227.729 394.779 226.816 393.061C225.914 391.333 225.462 389.28 225.462 386.902C225.462 384.592 225.918 382.573 226.831 380.845C227.743 379.108 229.029 377.759 230.689 376.798C232.349 375.827 234.305 375.342 236.557 375.342C238.148 375.342 239.604 375.589 240.925 376.084C242.245 376.579 243.385 377.312 244.346 378.283C245.307 379.253 246.054 380.452 246.588 381.879C247.122 383.296 247.389 384.922 247.389 386.757V388.533H227.952V384.398H240.764C240.755 383.641 240.575 382.966 240.226 382.374C239.876 381.782 239.396 381.321 238.784 380.991C238.182 380.651 237.488 380.481 236.702 380.481C235.906 380.481 235.193 380.661 234.562 381.02C233.931 381.369 233.431 381.85 233.062 382.461C232.693 383.063 232.499 383.748 232.48 384.514V388.722C232.48 389.634 232.66 390.435 233.019 391.124C233.378 391.804 233.887 392.333 234.547 392.711C235.207 393.09 235.994 393.279 236.906 393.279C237.537 393.279 238.11 393.192 238.624 393.017C239.139 392.842 239.58 392.585 239.949 392.246C240.318 391.906 240.595 391.488 240.779 390.993L247.316 391.183C247.044 392.648 246.448 393.925 245.525 395.012C244.613 396.089 243.414 396.929 241.929 397.531C240.444 398.123 238.726 398.419 236.775 398.419ZM258.145 385.242V397.997H251.025V375.633H257.796V379.739H258.043C258.538 378.37 259.383 377.298 260.576 376.521C261.77 375.735 263.192 375.342 264.842 375.342C266.415 375.342 267.779 375.696 268.934 376.405C270.098 377.103 271.001 378.084 271.642 379.346C272.292 380.598 272.612 382.063 272.603 383.743V397.997H265.483V385.14C265.493 383.898 265.177 382.927 264.537 382.228C263.906 381.53 263.027 381.18 261.901 381.18C261.154 381.18 260.494 381.345 259.921 381.675C259.358 381.996 258.921 382.457 258.611 383.058C258.31 383.66 258.155 384.388 258.145 385.242ZM289.634 375.633V380.874H275.526V375.633H289.634ZM278.481 370.275H285.601V390.964C285.601 391.401 285.669 391.755 285.805 392.027C285.95 392.289 286.159 392.478 286.431 392.595C286.703 392.702 287.028 392.755 287.406 392.755C287.678 392.755 287.964 392.731 288.265 392.682C288.576 392.624 288.809 392.576 288.964 392.537L290.042 397.676C289.702 397.773 289.221 397.895 288.6 398.04C287.989 398.186 287.256 398.278 286.402 398.317C284.732 398.395 283.3 398.2 282.107 397.735C280.922 397.259 280.015 396.521 279.384 395.521C278.763 394.522 278.462 393.265 278.481 391.75V370.275Z" fill="#ABAAC5"/>
<path d="M409.267 593.182H418.192L425.763 611.643H426.113L433.684 593.182H442.609V623H435.591V604.684H435.343L428.18 622.811H423.696L416.532 604.582H416.285V623H409.267V593.182ZM457.543 623.422C455.194 623.422 453.175 622.942 451.486 621.981C449.807 621.01 448.511 619.661 447.599 617.933C446.696 616.196 446.245 614.182 446.245 611.891C446.245 609.591 446.696 607.576 447.599 605.849C448.511 604.111 449.807 602.762 451.486 601.801C453.175 600.83 455.194 600.345 457.543 600.345C459.892 600.345 461.906 600.83 463.585 601.801C465.274 602.762 466.57 604.111 467.473 605.849C468.385 607.576 468.841 609.591 468.841 611.891C468.841 614.182 468.385 616.196 467.473 617.933C466.57 619.661 465.274 621.01 463.585 621.981C461.906 622.942 459.892 623.422 457.543 623.422ZM457.587 618.05C458.441 618.05 459.164 617.788 459.756 617.263C460.348 616.739 460.8 616.011 461.11 615.08C461.431 614.148 461.591 613.07 461.591 611.847C461.591 610.605 461.431 609.518 461.11 608.586C460.8 607.654 460.348 606.926 459.756 606.402C459.164 605.878 458.441 605.616 457.587 605.616C456.704 605.616 455.956 605.878 455.345 606.402C454.743 606.926 454.282 607.654 453.962 608.586C453.651 609.518 453.496 610.605 453.496 611.847C453.496 613.07 453.651 614.148 453.962 615.08C454.282 616.011 454.743 616.739 455.345 617.263C455.956 617.788 456.704 618.05 457.587 618.05ZM480.657 623.32C479.007 623.32 477.507 622.893 476.158 622.039C474.809 621.185 473.731 619.904 472.925 618.195C472.12 616.487 471.717 614.366 471.717 611.833C471.717 609.202 472.134 607.038 472.969 605.339C473.804 603.641 474.896 602.384 476.245 601.568C477.604 600.753 479.065 600.345 480.628 600.345C481.802 600.345 482.807 600.549 483.641 600.957C484.476 601.355 485.165 601.869 485.709 602.5C486.252 603.131 486.665 603.786 486.946 604.466H487.092V593.182H494.212V623H487.165V619.375H486.946C486.646 620.064 486.218 620.709 485.665 621.311C485.112 621.913 484.418 622.398 483.583 622.767C482.758 623.136 481.783 623.32 480.657 623.32ZM483.132 617.773C483.996 617.773 484.733 617.53 485.345 617.045C485.956 616.55 486.427 615.856 486.757 614.963C487.087 614.07 487.252 613.022 487.252 611.818C487.252 610.595 487.087 609.542 486.757 608.659C486.437 607.775 485.966 607.096 485.345 606.62C484.733 606.145 483.996 605.907 483.132 605.907C482.249 605.907 481.501 606.15 480.89 606.635C480.278 607.12 479.812 607.805 479.492 608.688C479.181 609.571 479.026 610.615 479.026 611.818C479.026 613.022 479.186 614.07 479.506 614.963C479.827 615.856 480.288 616.55 480.89 617.045C481.501 617.53 482.249 617.773 483.132 617.773ZM505.019 623.379C503.592 623.379 502.325 623.141 501.219 622.665C500.122 622.18 499.253 621.452 498.612 620.481C497.981 619.501 497.666 618.273 497.666 616.798C497.666 615.555 497.884 614.507 498.321 613.653C498.758 612.799 499.36 612.105 500.127 611.571C500.893 611.037 501.777 610.634 502.776 610.362C503.776 610.081 504.844 609.891 505.98 609.794C507.251 609.678 508.275 609.557 509.052 609.43C509.828 609.295 510.391 609.105 510.741 608.863C511.1 608.61 511.279 608.256 511.279 607.8V607.727C511.279 606.98 511.022 606.402 510.508 605.994C509.993 605.587 509.299 605.383 508.426 605.383C507.484 605.383 506.727 605.587 506.154 605.994C505.582 606.402 505.218 606.965 505.062 607.683L498.496 607.45C498.69 606.091 499.19 604.878 499.996 603.81C500.811 602.733 501.927 601.888 503.344 601.277C504.771 600.656 506.484 600.345 508.484 600.345C509.911 600.345 511.226 600.515 512.429 600.855C513.633 601.185 514.681 601.67 515.574 602.311C516.467 602.942 517.157 603.718 517.642 604.64C518.137 605.562 518.384 606.616 518.384 607.8V623H511.687V619.884H511.512C511.114 620.641 510.605 621.282 509.983 621.806C509.372 622.33 508.649 622.723 507.814 622.985C506.989 623.248 506.057 623.379 505.019 623.379ZM507.217 618.719C507.984 618.719 508.673 618.564 509.285 618.254C509.906 617.943 510.401 617.516 510.77 616.972C511.139 616.419 511.323 615.778 511.323 615.05V612.925C511.119 613.031 510.872 613.129 510.58 613.216C510.299 613.303 509.988 613.386 509.649 613.463C509.309 613.541 508.959 613.609 508.6 613.667C508.241 613.725 507.897 613.779 507.567 613.827C506.897 613.934 506.324 614.099 505.848 614.322C505.383 614.546 505.023 614.837 504.771 615.196C504.528 615.545 504.407 615.963 504.407 616.448C504.407 617.186 504.669 617.749 505.193 618.137C505.727 618.525 506.402 618.719 507.217 618.719ZM529.857 593.182V623H522.738V593.182H529.857Z" fill="#ABAAC5"/>
<path d="M593.628 501.273L586.382 522H579.904L572.658 501.273H578.73L583.035 516.103H583.251L587.542 501.273H593.628ZM596.57 522V501.273H602.318V522H596.57ZM599.458 498.601C598.603 498.601 597.87 498.317 597.258 497.751C596.655 497.175 596.354 496.487 596.354 495.686C596.354 494.894 596.655 494.215 597.258 493.648C597.87 493.073 598.603 492.785 599.458 492.785C600.312 492.785 601.041 493.073 601.644 493.648C602.256 494.215 602.561 494.894 602.561 495.686C602.561 496.487 602.256 497.175 601.644 497.751C601.041 498.317 600.312 498.601 599.458 498.601ZM624.169 507.183L618.906 507.507C618.816 507.057 618.623 506.652 618.326 506.293C618.029 505.924 617.638 505.631 617.152 505.415C616.675 505.191 616.104 505.078 615.438 505.078C614.548 505.078 613.797 505.267 613.185 505.645C612.573 506.014 612.267 506.509 612.267 507.129C612.267 507.624 612.465 508.042 612.861 508.384C613.257 508.726 613.936 509 614.899 509.207L618.65 509.963C620.665 510.377 622.168 511.043 623.157 511.96C624.147 512.878 624.641 514.083 624.641 515.577C624.641 516.935 624.241 518.127 623.44 519.153C622.649 520.178 621.56 520.979 620.175 521.555C618.798 522.121 617.211 522.405 615.411 522.405C612.668 522.405 610.481 521.834 608.853 520.691C607.234 519.54 606.285 517.974 606.006 515.995L611.66 515.698C611.831 516.535 612.245 517.174 612.901 517.614C613.558 518.046 614.399 518.262 615.425 518.262C616.432 518.262 617.242 518.069 617.854 517.682C618.475 517.286 618.789 516.778 618.798 516.157C618.789 515.635 618.569 515.208 618.137 514.875C617.705 514.533 617.04 514.272 616.14 514.092L612.551 513.377C610.526 512.972 609.02 512.271 608.03 511.272C607.049 510.273 606.559 509 606.559 507.453C606.559 506.122 606.919 504.975 607.639 504.012C608.367 503.049 609.388 502.307 610.702 501.786C612.024 501.264 613.572 501.003 615.344 501.003C617.962 501.003 620.022 501.556 621.524 502.663C623.036 503.769 623.917 505.276 624.169 507.183ZM628.261 522V501.273H634.01V522H628.261ZM631.149 498.601C630.294 498.601 629.561 498.317 628.95 497.751C628.347 497.175 628.045 496.487 628.045 495.686C628.045 494.894 628.347 494.215 628.95 493.648C629.561 493.073 630.294 492.785 631.149 492.785C632.004 492.785 632.732 493.073 633.335 493.648C633.947 494.215 634.253 494.894 634.253 495.686C634.253 496.487 633.947 497.175 633.335 497.751C632.732 498.317 632.004 498.601 631.149 498.601ZM638.723 522V494.364H644.471V504.754H644.647C644.899 504.196 645.263 503.63 645.74 503.054C646.226 502.469 646.855 501.983 647.629 501.597C648.412 501.201 649.383 501.003 650.544 501.003C652.055 501.003 653.45 501.399 654.727 502.19C656.005 502.973 657.026 504.156 657.79 505.739C658.555 507.314 658.937 509.288 658.937 511.663C658.937 513.975 658.564 515.928 657.817 517.52C657.08 519.103 656.072 520.304 654.795 521.123C653.526 521.933 652.105 522.337 650.53 522.337C649.415 522.337 648.466 522.153 647.683 521.784C646.909 521.415 646.275 520.952 645.78 520.394C645.286 519.827 644.908 519.256 644.647 518.68H644.39V522H638.723ZM644.35 511.636C644.35 512.869 644.521 513.944 644.863 514.862C645.205 515.779 645.699 516.494 646.347 517.007C646.995 517.511 647.782 517.763 648.709 517.763C649.644 517.763 650.436 517.506 651.084 516.994C651.731 516.472 652.222 515.752 652.554 514.835C652.896 513.908 653.067 512.842 653.067 511.636C653.067 510.44 652.901 509.387 652.568 508.479C652.235 507.57 651.745 506.859 651.097 506.347C650.449 505.834 649.653 505.577 648.709 505.577C647.773 505.577 646.981 505.825 646.334 506.32C645.695 506.814 645.205 507.516 644.863 508.425C644.521 509.333 644.35 510.404 644.35 511.636ZM668.522 494.364V522H662.773V494.364H668.522ZM682.573 522.405C680.44 522.405 678.605 521.973 677.067 521.109C675.538 520.237 674.359 519.004 673.531 517.412C672.704 515.811 672.29 513.917 672.29 511.731C672.29 509.599 672.704 507.728 673.531 506.117C674.359 504.507 675.524 503.252 677.026 502.352C678.538 501.453 680.31 501.003 682.343 501.003C683.711 501.003 684.984 501.223 686.162 501.664C687.35 502.096 688.384 502.748 689.266 503.621C690.156 504.493 690.849 505.591 691.344 506.913C691.839 508.227 692.086 509.765 692.086 511.528V513.107H674.584V509.545H686.675C686.675 508.717 686.495 507.984 686.135 507.345C685.775 506.706 685.276 506.207 684.637 505.847C684.007 505.478 683.274 505.294 682.438 505.294C681.565 505.294 680.791 505.496 680.117 505.901C679.451 506.297 678.929 506.832 678.551 507.507C678.173 508.173 677.98 508.915 677.971 509.734V513.121C677.971 514.146 678.16 515.032 678.538 515.779C678.925 516.526 679.469 517.102 680.171 517.506C680.872 517.911 681.704 518.114 682.667 518.114C683.306 518.114 683.891 518.024 684.421 517.844C684.952 517.664 685.406 517.394 685.784 517.034C686.162 516.674 686.45 516.233 686.648 515.712L691.965 516.062C691.695 517.34 691.141 518.455 690.305 519.409C689.477 520.354 688.407 521.091 687.093 521.622C685.789 522.144 684.282 522.405 682.573 522.405Z" fill="#5B44E9"/>
<path d="M190.669 762.405C188.546 762.405 186.72 761.955 185.191 761.055C183.67 760.147 182.501 758.887 181.682 757.277C180.872 755.667 180.468 753.813 180.468 751.717C180.468 749.594 180.877 747.732 181.696 746.131C182.523 744.52 183.697 743.265 185.218 742.366C186.738 741.457 188.546 741.003 190.642 741.003C192.451 741.003 194.034 741.331 195.392 741.988C196.751 742.645 197.826 743.567 198.617 744.754C199.409 745.942 199.845 747.336 199.926 748.938H194.502C194.349 747.903 193.944 747.071 193.287 746.441C192.64 745.802 191.789 745.483 190.737 745.483C189.846 745.483 189.068 745.726 188.402 746.212C187.746 746.688 187.233 747.386 186.864 748.303C186.495 749.221 186.311 750.332 186.311 751.636C186.311 752.959 186.491 754.083 186.85 755.01C187.219 755.937 187.737 756.643 188.402 757.129C189.068 757.614 189.846 757.857 190.737 757.857C191.394 757.857 191.983 757.722 192.505 757.452C193.035 757.183 193.472 756.791 193.814 756.278C194.164 755.757 194.394 755.131 194.502 754.403H199.926C199.836 755.986 199.405 757.38 198.631 758.586C197.866 759.782 196.809 760.718 195.46 761.393C194.11 762.067 192.514 762.405 190.669 762.405ZM209.356 734.364V762H203.607V734.364H209.356ZM223.326 762.405C221.229 762.405 219.417 761.96 217.887 761.069C216.367 760.169 215.193 758.919 214.365 757.317C213.538 755.707 213.124 753.84 213.124 751.717C213.124 749.576 213.538 747.705 214.365 746.104C215.193 744.493 216.367 743.243 217.887 742.352C219.417 741.453 221.229 741.003 223.326 741.003C225.422 741.003 227.23 741.453 228.75 742.352C230.28 743.243 231.458 744.493 232.286 746.104C233.113 747.705 233.527 749.576 233.527 751.717C233.527 753.84 233.113 755.707 232.286 757.317C231.458 758.919 230.28 760.169 228.75 761.069C227.23 761.96 225.422 762.405 223.326 762.405ZM223.353 757.952C224.306 757.952 225.102 757.682 225.741 757.142C226.38 756.593 226.861 755.847 227.185 754.902C227.518 753.957 227.684 752.882 227.684 751.677C227.684 750.471 227.518 749.396 227.185 748.452C226.861 747.507 226.38 746.76 225.741 746.212C225.102 745.663 224.306 745.388 223.353 745.388C222.39 745.388 221.58 745.663 220.924 746.212C220.276 746.76 219.786 747.507 219.453 748.452C219.129 749.396 218.967 750.471 218.967 751.677C218.967 752.882 219.129 753.957 219.453 754.902C219.786 755.847 220.276 756.593 220.924 757.142C221.58 757.682 222.39 757.952 223.353 757.952ZM254.511 747.183L249.248 747.507C249.158 747.057 248.965 746.652 248.668 746.293C248.371 745.924 247.98 745.631 247.494 745.415C247.017 745.191 246.446 745.078 245.78 745.078C244.89 745.078 244.138 745.267 243.527 745.645C242.915 746.014 242.609 746.509 242.609 747.129C242.609 747.624 242.807 748.042 243.203 748.384C243.599 748.726 244.278 749 245.24 749.207L248.992 749.963C251.007 750.377 252.509 751.043 253.499 751.96C254.488 752.878 254.983 754.083 254.983 755.577C254.983 756.935 254.583 758.127 253.782 759.153C252.991 760.178 251.902 760.979 250.517 761.555C249.14 762.121 247.552 762.405 245.753 762.405C243.009 762.405 240.823 761.834 239.195 760.691C237.576 759.54 236.626 757.974 236.348 755.995L242.002 755.698C242.173 756.535 242.586 757.174 243.243 757.614C243.9 758.046 244.741 758.262 245.767 758.262C246.774 758.262 247.584 758.069 248.196 757.682C248.816 757.286 249.131 756.778 249.14 756.157C249.131 755.635 248.911 755.208 248.479 754.875C248.047 754.533 247.381 754.272 246.482 754.092L242.892 753.377C240.868 752.972 239.361 752.271 238.372 751.272C237.391 750.273 236.901 749 236.901 747.453C236.901 746.122 237.261 744.975 237.98 744.012C238.709 743.049 239.73 742.307 241.044 741.786C242.366 741.264 243.913 741.003 245.686 741.003C248.304 741.003 250.364 741.556 251.866 742.663C253.377 743.769 254.259 745.276 254.511 747.183ZM268.049 762.405C265.917 762.405 264.082 761.973 262.543 761.109C261.014 760.237 259.836 759.004 259.008 757.412C258.18 755.811 257.766 753.917 257.766 751.731C257.766 749.599 258.18 747.728 259.008 746.117C259.836 744.507 261.001 743.252 262.503 742.352C264.014 741.453 265.787 741.003 267.82 741.003C269.187 741.003 270.46 741.223 271.639 741.664C272.826 742.096 273.861 742.748 274.742 743.621C275.633 744.493 276.326 745.591 276.82 746.913C277.315 748.227 277.563 749.765 277.563 751.528V753.107H260.061V749.545H272.151C272.151 748.717 271.971 747.984 271.612 747.345C271.252 746.706 270.753 746.207 270.114 745.847C269.484 745.478 268.751 745.294 267.914 745.294C267.042 745.294 266.268 745.496 265.593 745.901C264.927 746.297 264.406 746.832 264.028 747.507C263.65 748.173 263.457 748.915 263.448 749.734V753.121C263.448 754.146 263.636 755.032 264.014 755.779C264.401 756.526 264.945 757.102 265.647 757.506C266.349 757.911 267.181 758.114 268.144 758.114C268.782 758.114 269.367 758.024 269.898 757.844C270.429 757.664 270.883 757.394 271.261 757.034C271.639 756.674 271.927 756.233 272.124 755.712L277.441 756.062C277.171 757.34 276.618 758.455 275.781 759.409C274.954 760.354 273.883 761.091 272.57 761.622C271.265 762.144 269.758 762.405 268.049 762.405Z" fill="#B35DE8"/>
<path d="M190.669 846.405C188.546 846.405 186.72 845.955 185.191 845.055C183.67 844.147 182.501 842.887 181.682 841.277C180.872 839.667 180.468 837.813 180.468 835.717C180.468 833.594 180.877 831.732 181.696 830.131C182.523 828.52 183.697 827.265 185.218 826.366C186.738 825.457 188.546 825.003 190.642 825.003C192.451 825.003 194.034 825.331 195.392 825.988C196.751 826.645 197.826 827.567 198.617 828.754C199.409 829.942 199.845 831.336 199.926 832.938H194.502C194.349 831.903 193.944 831.071 193.287 830.441C192.64 829.802 191.789 829.483 190.737 829.483C189.846 829.483 189.068 829.726 188.402 830.212C187.746 830.688 187.233 831.386 186.864 832.303C186.495 833.221 186.311 834.332 186.311 835.636C186.311 836.959 186.491 838.083 186.85 839.01C187.219 839.937 187.737 840.643 188.402 841.129C189.068 841.614 189.846 841.857 190.737 841.857C191.394 841.857 191.983 841.722 192.505 841.452C193.035 841.183 193.472 840.791 193.814 840.278C194.164 839.757 194.394 839.131 194.502 838.403H199.926C199.836 839.986 199.405 841.38 198.631 842.586C197.866 843.782 196.809 844.718 195.46 845.393C194.11 846.067 192.514 846.405 190.669 846.405ZM209.356 834.017V846H203.607V818.364H209.194V828.93H209.437C209.904 827.706 210.66 826.748 211.704 826.055C212.747 825.354 214.056 825.003 215.63 825.003C217.07 825.003 218.325 825.318 219.395 825.947C220.475 826.568 221.312 827.463 221.905 828.633C222.508 829.793 222.805 831.183 222.796 832.803V846H217.047V833.828C217.056 832.551 216.732 831.557 216.076 830.846C215.428 830.135 214.519 829.78 213.35 829.78C212.567 829.78 211.875 829.946 211.272 830.279C210.678 830.612 210.21 831.098 209.868 831.737C209.536 832.366 209.365 833.126 209.356 834.017ZM233.23 846.391C231.908 846.391 230.729 846.162 229.695 845.703C228.66 845.235 227.842 844.547 227.239 843.638C226.645 842.721 226.348 841.578 226.348 840.211C226.348 839.059 226.56 838.092 226.983 837.31C227.405 836.527 227.981 835.897 228.71 835.42C229.439 834.944 230.266 834.584 231.193 834.341C232.128 834.098 233.109 833.927 234.135 833.828C235.34 833.702 236.312 833.585 237.049 833.477C237.787 833.36 238.322 833.189 238.655 832.964C238.988 832.74 239.154 832.407 239.154 831.966V831.885C239.154 831.03 238.885 830.369 238.345 829.901C237.814 829.433 237.058 829.2 236.078 829.2C235.043 829.2 234.22 829.429 233.608 829.888C232.997 830.338 232.592 830.904 232.394 831.588L227.077 831.156C227.347 829.897 227.878 828.808 228.669 827.891C229.461 826.964 230.482 826.253 231.733 825.759C232.992 825.255 234.449 825.003 236.105 825.003C237.256 825.003 238.358 825.138 239.411 825.408C240.472 825.678 241.412 826.096 242.231 826.663C243.059 827.229 243.711 827.958 244.188 828.849C244.665 829.73 244.903 830.787 244.903 832.02V846H239.451V843.126H239.289C238.957 843.773 238.511 844.345 237.953 844.839C237.396 845.325 236.725 845.708 235.943 845.987C235.16 846.256 234.256 846.391 233.23 846.391ZM234.877 842.424C235.722 842.424 236.469 842.258 237.117 841.925C237.765 841.583 238.273 841.124 238.642 840.548C239.01 839.973 239.195 839.32 239.195 838.592V836.392C239.015 836.509 238.768 836.617 238.453 836.716C238.147 836.806 237.801 836.891 237.414 836.972C237.027 837.044 236.64 837.112 236.253 837.175C235.866 837.229 235.515 837.278 235.201 837.323C234.526 837.422 233.937 837.58 233.433 837.795C232.929 838.011 232.538 838.304 232.259 838.673C231.98 839.032 231.841 839.482 231.841 840.022C231.841 840.805 232.124 841.403 232.691 841.817C233.266 842.222 233.995 842.424 234.877 842.424ZM255.111 834.017V846H249.363V825.273H254.842V828.93H255.084C255.543 827.724 256.312 826.771 257.392 826.069C258.472 825.358 259.78 825.003 261.319 825.003C262.758 825.003 264.013 825.318 265.084 825.947C266.154 826.577 266.986 827.477 267.58 828.646C268.174 829.807 268.471 831.192 268.471 832.803V846H262.722V833.828C262.731 832.56 262.407 831.57 261.751 830.859C261.094 830.14 260.19 829.78 259.038 829.78C258.265 829.78 257.581 829.946 256.987 830.279C256.402 830.612 255.944 831.098 255.611 831.737C255.287 832.366 255.12 833.126 255.111 834.017ZM282.34 854.205C280.477 854.205 278.881 853.948 277.549 853.435C276.227 852.932 275.174 852.243 274.391 851.371C273.609 850.498 273.101 849.518 272.867 848.429L278.183 847.714C278.345 848.128 278.602 848.514 278.953 848.874C279.303 849.234 279.767 849.522 280.342 849.738C280.927 849.963 281.638 850.075 282.475 850.075C283.725 850.075 284.755 849.769 285.565 849.158C286.383 848.555 286.793 847.543 286.793 846.121V842.33H286.55C286.298 842.905 285.92 843.45 285.416 843.962C284.913 844.475 284.265 844.893 283.473 845.217C282.681 845.541 281.737 845.703 280.639 845.703C279.083 845.703 277.666 845.343 276.389 844.624C275.12 843.895 274.108 842.784 273.352 841.29C272.606 839.788 272.232 837.89 272.232 835.596C272.232 833.248 272.615 831.287 273.379 829.712C274.144 828.138 275.161 826.96 276.429 826.177C277.707 825.394 279.105 825.003 280.626 825.003C281.786 825.003 282.758 825.201 283.541 825.597C284.323 825.983 284.953 826.469 285.43 827.054C285.916 827.63 286.289 828.196 286.55 828.754H286.766V825.273H292.474V846.202C292.474 847.966 292.042 849.441 291.178 850.629C290.315 851.816 289.118 852.707 287.589 853.3C286.069 853.903 284.319 854.205 282.34 854.205ZM282.461 841.385C283.388 841.385 284.17 841.156 284.809 840.697C285.457 840.229 285.952 839.563 286.293 838.7C286.644 837.827 286.82 836.783 286.82 835.569C286.82 834.354 286.649 833.302 286.307 832.411C285.965 831.512 285.47 830.814 284.823 830.32C284.175 829.825 283.388 829.577 282.461 829.577C281.516 829.577 280.72 829.834 280.073 830.347C279.425 830.85 278.935 831.552 278.602 832.452C278.269 833.351 278.102 834.39 278.102 835.569C278.102 836.765 278.269 837.8 278.602 838.673C278.944 839.536 279.434 840.206 280.073 840.683C280.72 841.151 281.516 841.385 282.461 841.385ZM306.494 846.405C304.362 846.405 302.527 845.973 300.989 845.109C299.459 844.237 298.281 843.004 297.453 841.412C296.626 839.811 296.212 837.917 296.212 835.731C296.212 833.599 296.626 831.728 297.453 830.117C298.281 828.507 299.446 827.252 300.948 826.352C302.46 825.453 304.232 825.003 306.265 825.003C307.632 825.003 308.905 825.223 310.084 825.664C311.271 826.096 312.306 826.748 313.188 827.621C314.078 828.493 314.771 829.591 315.266 830.913C315.761 832.227 316.008 833.765 316.008 835.528V837.107H298.506V833.545H310.597C310.597 832.717 310.417 831.984 310.057 831.345C309.697 830.706 309.198 830.207 308.559 829.847C307.929 829.478 307.196 829.294 306.36 829.294C305.487 829.294 304.713 829.496 304.038 829.901C303.373 830.297 302.851 830.832 302.473 831.507C302.095 832.173 301.902 832.915 301.893 833.734V837.121C301.893 838.146 302.082 839.032 302.46 839.779C302.846 840.526 303.391 841.102 304.092 841.506C304.794 841.911 305.626 842.114 306.589 842.114C307.228 842.114 307.812 842.024 308.343 841.844C308.874 841.664 309.328 841.394 309.706 841.034C310.084 840.674 310.372 840.233 310.57 839.712L315.886 840.062C315.617 841.34 315.063 842.455 314.227 843.409C313.399 844.354 312.328 845.091 311.015 845.622C309.711 846.144 308.204 846.405 306.494 846.405Z" fill="#B35DE8"/>
<path d="M198.55 917.183L193.287 917.507C193.197 917.057 193.004 916.652 192.707 916.293C192.41 915.924 192.019 915.631 191.533 915.415C191.056 915.191 190.485 915.078 189.819 915.078C188.929 915.078 188.177 915.267 187.566 915.645C186.954 916.014 186.648 916.509 186.648 917.129C186.648 917.624 186.846 918.042 187.242 918.384C187.638 918.726 188.317 919 189.279 919.207L193.031 919.963C195.046 920.377 196.548 921.043 197.538 921.96C198.528 922.878 199.022 924.083 199.022 925.577C199.022 926.935 198.622 928.127 197.821 929.153C197.03 930.178 195.941 930.979 194.556 931.555C193.179 932.121 191.591 932.405 189.792 932.405C187.048 932.405 184.862 931.834 183.234 930.691C181.615 929.54 180.666 927.974 180.387 925.995L186.041 925.698C186.212 926.535 186.626 927.174 187.282 927.614C187.939 928.046 188.78 928.262 189.806 928.262C190.813 928.262 191.623 928.069 192.235 927.682C192.855 927.286 193.17 926.778 193.179 926.157C193.17 925.635 192.95 925.208 192.518 924.875C192.086 924.533 191.421 924.272 190.521 924.092L186.931 923.377C184.907 922.972 183.4 922.271 182.411 921.272C181.43 920.273 180.94 919 180.94 917.453C180.94 916.122 181.3 914.975 182.019 914.012C182.748 913.049 183.769 912.307 185.083 911.786C186.405 911.264 187.952 911.003 189.725 911.003C192.343 911.003 194.403 911.556 195.905 912.663C197.417 913.769 198.298 915.276 198.55 917.183ZM215.934 923.175V911.273H221.683V932H216.163V928.235H215.948C215.48 929.45 214.702 930.426 213.613 931.163C212.534 931.901 211.216 932.27 209.659 932.27C208.274 932.27 207.055 931.955 206.002 931.325C204.95 930.696 204.127 929.8 203.533 928.64C202.948 927.479 202.651 926.089 202.642 924.47V911.273H208.391V923.445C208.4 924.668 208.728 925.635 209.376 926.346C210.024 927.057 210.892 927.412 211.98 927.412C212.673 927.412 213.321 927.254 213.923 926.94C214.526 926.616 215.012 926.139 215.381 925.509C215.759 924.879 215.943 924.101 215.934 923.175ZM226.389 932V904.364H232.137V914.754H232.313C232.565 914.196 232.929 913.63 233.406 913.054C233.892 912.469 234.521 911.983 235.295 911.597C236.078 911.201 237.049 911.003 238.21 911.003C239.721 911.003 241.116 911.399 242.393 912.19C243.671 912.973 244.692 914.156 245.456 915.739C246.221 917.314 246.603 919.288 246.603 921.663C246.603 923.975 246.23 925.928 245.483 927.52C244.746 929.103 243.738 930.304 242.461 931.123C241.192 931.933 239.771 932.337 238.196 932.337C237.081 932.337 236.132 932.153 235.349 931.784C234.575 931.415 233.941 930.952 233.446 930.394C232.952 929.827 232.574 929.256 232.313 928.68H232.056V932H226.389ZM232.016 921.636C232.016 922.869 232.187 923.944 232.529 924.862C232.871 925.779 233.365 926.494 234.013 927.007C234.661 927.511 235.448 927.763 236.375 927.763C237.31 927.763 238.102 927.506 238.75 926.994C239.397 926.472 239.888 925.752 240.22 924.835C240.562 923.908 240.733 922.842 240.733 921.636C240.733 920.44 240.567 919.387 240.234 918.479C239.901 917.57 239.411 916.859 238.763 916.347C238.115 915.834 237.319 915.577 236.375 915.577C235.439 915.577 234.647 915.825 234 916.32C233.361 916.814 232.871 917.516 232.529 918.425C232.187 919.333 232.016 920.404 232.016 921.636ZM250.439 932V911.273H255.918V914.93H256.161C256.592 913.715 257.312 912.757 258.32 912.055C259.327 911.354 260.533 911.003 261.936 911.003C263.358 911.003 264.568 911.358 265.566 912.069C266.565 912.771 267.23 913.724 267.563 914.93H267.779C268.202 913.742 268.967 912.793 270.073 912.082C271.189 911.363 272.507 911.003 274.027 911.003C275.961 911.003 277.531 911.619 278.737 912.852C279.951 914.075 280.558 915.811 280.558 918.06V932H274.823V919.194C274.823 918.042 274.517 917.179 273.906 916.603C273.294 916.027 272.529 915.739 271.612 915.739C270.568 915.739 269.754 916.072 269.169 916.738C268.584 917.395 268.292 918.263 268.292 919.342V932H262.719V919.072C262.719 918.056 262.427 917.246 261.842 916.643C261.266 916.041 260.506 915.739 259.561 915.739C258.922 915.739 258.347 915.901 257.834 916.225C257.33 916.54 256.93 916.985 256.633 917.561C256.336 918.128 256.188 918.794 256.188 919.558V932H250.439ZM285.099 932V911.273H290.848V932H285.099ZM287.987 908.601C287.132 908.601 286.399 908.317 285.787 907.751C285.185 907.175 284.883 906.487 284.883 905.686C284.883 904.894 285.185 904.215 285.787 903.648C286.399 903.073 287.132 902.785 287.987 902.785C288.842 902.785 289.57 903.073 290.173 903.648C290.785 904.215 291.091 904.894 291.091 905.686C291.091 906.487 290.785 907.175 290.173 907.751C289.57 908.317 288.842 908.601 287.987 908.601ZM306.478 911.273V915.591H293.995V911.273H306.478ZM296.829 906.307H302.578V925.631C302.578 926.161 302.659 926.575 302.821 926.872C302.983 927.16 303.207 927.362 303.495 927.479C303.792 927.596 304.134 927.655 304.521 927.655C304.791 927.655 305.061 927.632 305.331 927.587C305.6 927.533 305.807 927.493 305.951 927.466L306.855 931.744C306.568 931.834 306.163 931.937 305.641 932.054C305.119 932.18 304.485 932.256 303.738 932.283C302.353 932.337 301.138 932.153 300.095 931.73C299.06 931.307 298.255 930.651 297.679 929.76C297.104 928.869 296.82 927.745 296.829 926.386V906.307Z" fill="#B35DE8"/>
<path d="M749.329 501.273V505.591H736.847V501.273H749.329ZM739.681 496.307H745.429V515.631C745.429 516.161 745.51 516.575 745.672 516.872C745.834 517.16 746.059 517.362 746.347 517.479C746.644 517.596 746.986 517.655 747.372 517.655C747.642 517.655 747.912 517.632 748.182 517.587C748.452 517.533 748.659 517.493 748.803 517.466L749.707 521.744C749.419 521.834 749.014 521.937 748.492 522.054C747.971 522.18 747.336 522.256 746.59 522.283C745.204 522.337 743.99 522.153 742.946 521.73C741.912 521.307 741.107 520.651 740.531 519.76C739.955 518.869 739.672 517.745 739.681 516.386V496.307ZM762.297 522.405C760.165 522.405 758.33 521.973 756.792 521.109C755.262 520.237 754.084 519.004 753.256 517.412C752.428 515.811 752.015 513.917 752.015 511.731C752.015 509.599 752.428 507.728 753.256 506.117C754.084 504.507 755.249 503.252 756.751 502.352C758.262 501.453 760.035 501.003 762.068 501.003C763.435 501.003 764.708 501.223 765.887 501.664C767.074 502.096 768.109 502.748 768.99 503.621C769.881 504.493 770.574 505.591 771.068 506.913C771.563 508.227 771.811 509.765 771.811 511.528V513.107H754.309V509.545H766.399C766.399 508.717 766.22 507.984 765.86 507.345C765.5 506.706 765.001 506.207 764.362 505.847C763.732 505.478 762.999 505.294 762.162 505.294C761.29 505.294 760.516 505.496 759.841 505.901C759.176 506.297 758.654 506.832 758.276 507.507C757.898 508.173 757.705 508.915 757.696 509.734V513.121C757.696 514.146 757.885 515.032 758.262 515.779C758.649 516.526 759.193 517.102 759.895 517.506C760.597 517.911 761.429 518.114 762.392 518.114C763.03 518.114 763.615 518.024 764.146 517.844C764.677 517.664 765.131 517.394 765.509 517.034C765.887 516.674 766.175 516.233 766.372 515.712L771.689 516.062C771.419 517.34 770.866 518.455 770.029 519.409C769.202 520.354 768.131 521.091 766.818 521.622C765.513 522.144 764.006 522.405 762.297 522.405ZM779.995 501.273L783.8 508.519L787.7 501.273H793.597L787.592 511.636L793.759 522H787.889L783.8 514.835L779.779 522H773.842L779.995 511.636L774.057 501.273H779.995ZM808.036 501.273V505.591H795.554V501.273H808.036ZM798.388 496.307H804.136V515.631C804.136 516.161 804.217 516.575 804.379 516.872C804.541 517.16 804.766 517.362 805.054 517.479C805.351 517.596 805.693 517.655 806.08 517.655C806.349 517.655 806.619 517.632 806.889 517.587C807.159 517.533 807.366 517.493 807.51 517.466L808.414 521.744C808.126 521.834 807.721 521.937 807.2 522.054C806.678 522.18 806.044 522.256 805.297 522.283C803.911 522.337 802.697 522.153 801.653 521.73C800.619 521.307 799.814 520.651 799.238 519.76C798.662 518.869 798.379 517.745 798.388 516.386V496.307Z" fill="#5B44E9"/>
<path d="M631.828 695.182C633.586 696.939 636.435 696.939 638.192 695.182L666.83 666.544C668.587 664.787 668.587 661.938 666.83 660.18C665.073 658.423 662.223 658.423 660.466 660.18L635.01 685.636L609.554 660.18C607.797 658.423 604.948 658.423 603.19 660.18C601.433 661.938 601.433 664.787 603.19 666.544L631.828 695.182ZM630.51 550L630.51 692L639.51 692L639.51 550L630.51 550Z" fill="#5B44E9" fill-opacity="0.6"/>
<path d="M767.828 695.182C769.586 696.939 772.435 696.939 774.192 695.182L802.83 666.544C804.587 664.787 804.587 661.938 802.83 660.18C801.073 658.423 798.223 658.423 796.466 660.18L771.01 685.636L745.554 660.18C743.797 658.423 740.948 658.423 739.19 660.18C737.433 661.938 737.433 664.787 739.19 666.544L767.828 695.182ZM766.51 550L766.51 692L775.51 692L775.51 550L766.51 550Z" fill="#5B44E9" fill-opacity="0.6"/>
<path d="M331.818 745.815C330.061 747.572 330.061 750.421 331.818 752.179L360.456 780.816C362.213 782.574 365.062 782.574 366.82 780.816C368.577 779.059 368.577 776.21 366.82 774.452L341.364 748.997L366.82 723.541C368.577 721.783 368.577 718.934 366.82 717.177C365.062 715.419 362.213 715.419 360.456 717.177L331.818 745.815ZM506 744.497L335 744.497L335 753.497L506 753.497L506 744.497Z" fill="#B35DE8" fill-opacity="0.6"/>
<path d="M331.828 829.818C330.071 831.575 330.071 834.425 331.828 836.182L360.466 864.82C362.223 866.577 365.073 866.577 366.83 864.82C368.587 863.062 368.587 860.213 366.83 858.456L341.374 833L366.83 807.544C368.587 805.787 368.587 802.938 366.83 801.18C365.073 799.423 362.223 799.423 360.466 801.18L331.828 829.818ZM506.01 828.5L335.01 828.5L335.01 837.5L506.01 837.5L506.01 828.5Z" fill="#B35DE8" fill-opacity="0.6"/>
<path d="M331.828 914.818C330.071 916.575 330.071 919.425 331.828 921.182L360.466 949.82C362.223 951.577 365.073 951.577 366.83 949.82C368.587 948.062 368.587 945.213 366.83 943.456L341.374 918L366.83 892.544C368.587 890.787 368.587 887.938 366.83 886.18C365.073 884.423 362.223 884.423 360.466 886.18L331.828 914.818ZM506.01 913.5L335.01 913.5L335.01 922.5L506.01 922.5L506.01 913.5Z" fill="#B35DE8" fill-opacity="0.6"/>
<g filter="url(#filter2_b_2046_1548)">
<rect x="1219.01" y="412" width="738" height="675" rx="30" fill="white" fill-opacity="0.1"/>
<rect x="1221.01" y="414" width="734" height="671" rx="28" stroke="white" stroke-opacity="0.1" stroke-width="4"/>
</g>
<g filter="url(#filter3_b_2046_1548)">
<rect x="1467.02" y="637.003" width="444" height="411" rx="30" fill="white" fill-opacity="0.1"/>
<rect x="1469.02" y="639.003" width="440" height="407" rx="28" stroke="white" stroke-opacity="0.1" stroke-width="4"/>
</g>
<path d="M1220.27 398V368.182H1232.58C1234.82 368.182 1236.74 368.619 1238.36 369.492C1240 370.356 1241.25 371.565 1242.14 373.118C1243.02 374.661 1243.46 376.457 1243.46 378.505C1243.46 380.562 1243.01 382.363 1242.11 383.906C1241.21 385.44 1239.94 386.629 1238.28 387.473C1236.62 388.318 1234.65 388.74 1232.37 388.74H1224.77V383.062H1231.03C1232.11 383.062 1233.02 382.873 1233.75 382.494C1234.49 382.115 1235.05 381.586 1235.42 380.907C1235.8 380.218 1235.99 379.417 1235.99 378.505C1235.99 377.583 1235.8 376.787 1235.42 376.117C1235.05 375.437 1234.49 374.913 1233.75 374.544C1233.01 374.176 1232.1 373.991 1231.03 373.991H1227.47V398H1220.27ZM1252.52 398.379C1251.09 398.379 1249.82 398.141 1248.72 397.665C1247.62 397.18 1246.75 396.452 1246.11 395.481C1245.48 394.501 1245.16 393.273 1245.16 391.798C1245.16 390.555 1245.38 389.507 1245.82 388.653C1246.26 387.799 1246.86 387.105 1247.62 386.571C1248.39 386.037 1249.27 385.634 1250.27 385.362C1251.27 385.081 1252.34 384.891 1253.48 384.794C1254.75 384.678 1255.77 384.557 1256.55 384.43C1257.33 384.295 1257.89 384.105 1258.24 383.863C1258.6 383.61 1258.78 383.256 1258.78 382.8V382.727C1258.78 381.98 1258.52 381.402 1258.01 380.994C1257.49 380.587 1256.8 380.383 1255.92 380.383C1254.98 380.383 1254.22 380.587 1253.65 380.994C1253.08 381.402 1252.72 381.965 1252.56 382.683L1245.99 382.45C1246.19 381.091 1246.69 379.878 1247.49 378.81C1248.31 377.733 1249.43 376.888 1250.84 376.277C1252.27 375.656 1253.98 375.345 1255.98 375.345C1257.41 375.345 1258.72 375.515 1259.93 375.855C1261.13 376.185 1262.18 376.67 1263.07 377.311C1263.97 377.942 1264.65 378.718 1265.14 379.64C1265.63 380.562 1265.88 381.616 1265.88 382.8V398H1259.18V394.884H1259.01C1258.61 395.641 1258.1 396.282 1257.48 396.806C1256.87 397.33 1256.15 397.723 1255.31 397.985C1254.49 398.248 1253.56 398.379 1252.52 398.379ZM1254.72 393.719C1255.48 393.719 1256.17 393.564 1256.78 393.254C1257.4 392.943 1257.9 392.516 1258.27 391.972C1258.64 391.419 1258.82 390.778 1258.82 390.05V387.925C1258.62 388.031 1258.37 388.129 1258.08 388.216C1257.8 388.303 1257.49 388.386 1257.15 388.463C1256.81 388.541 1256.46 388.609 1256.1 388.667C1255.74 388.725 1255.39 388.779 1255.06 388.827C1254.39 388.934 1253.82 389.099 1253.35 389.322C1252.88 389.546 1252.52 389.837 1252.27 390.196C1252.03 390.545 1251.91 390.963 1251.91 391.448C1251.91 392.186 1252.17 392.749 1252.69 393.137C1253.23 393.525 1253.9 393.719 1254.72 393.719ZM1270.24 398V375.636H1277.15V379.713H1277.38C1277.79 378.238 1278.46 377.141 1279.38 376.423C1280.3 375.695 1281.37 375.331 1282.6 375.331C1282.93 375.331 1283.27 375.355 1283.62 375.403C1283.97 375.442 1284.29 375.505 1284.59 375.593V381.781C1284.25 381.664 1283.81 381.572 1283.25 381.504C1282.71 381.436 1282.22 381.402 1281.8 381.402C1280.95 381.402 1280.19 381.591 1279.51 381.97C1278.84 382.339 1278.31 382.858 1277.92 383.528C1277.54 384.188 1277.36 384.964 1277.36 385.857V398H1270.24ZM1296.79 398.422C1294.45 398.422 1292.43 397.961 1290.73 397.039C1289.04 396.107 1287.74 394.782 1286.83 393.064C1285.92 391.337 1285.47 389.284 1285.47 386.906C1285.47 384.595 1285.93 382.576 1286.84 380.849C1287.75 379.111 1289.04 377.762 1290.7 376.801C1292.36 375.83 1294.32 375.345 1296.57 375.345C1298.16 375.345 1299.61 375.593 1300.93 376.088C1302.25 376.583 1303.4 377.316 1304.36 378.286C1305.32 379.257 1306.06 380.456 1306.6 381.882C1307.13 383.3 1307.4 384.925 1307.4 386.76V388.536H1287.96V384.401H1300.77C1300.76 383.644 1300.59 382.97 1300.24 382.377C1299.89 381.785 1299.41 381.324 1298.79 380.994C1298.19 380.655 1297.5 380.485 1296.71 380.485C1295.92 380.485 1295.2 380.664 1294.57 381.023C1293.94 381.373 1293.44 381.853 1293.07 382.465C1292.7 383.067 1292.51 383.751 1292.49 384.518V388.725C1292.49 389.638 1292.67 390.439 1293.03 391.128C1293.39 391.807 1293.9 392.336 1294.56 392.715C1295.22 393.093 1296 393.283 1296.92 393.283C1297.55 393.283 1298.12 393.195 1298.63 393.021C1299.15 392.846 1299.59 392.589 1299.96 392.249C1300.33 391.909 1300.6 391.492 1300.79 390.997L1307.33 391.186C1307.05 392.652 1306.46 393.928 1305.54 395.015C1304.62 396.093 1303.42 396.932 1301.94 397.534C1300.45 398.126 1298.74 398.422 1296.79 398.422ZM1318.16 385.246V398H1311.04V375.636H1317.81V379.742H1318.05C1318.55 378.374 1319.39 377.301 1320.59 376.525C1321.78 375.738 1323.2 375.345 1324.85 375.345C1326.43 375.345 1327.79 375.699 1328.94 376.408C1330.11 377.107 1331.01 378.087 1331.65 379.349C1332.3 380.601 1332.62 382.067 1332.61 383.746V398H1325.49V385.144C1325.5 383.901 1325.19 382.931 1324.55 382.232C1323.92 381.533 1323.04 381.184 1321.91 381.184C1321.16 381.184 1320.5 381.349 1319.93 381.679C1319.37 381.999 1318.93 382.46 1318.62 383.062C1318.32 383.664 1318.16 384.392 1318.16 385.246ZM1349.64 375.636V380.878H1335.54V375.636H1349.64ZM1338.49 370.278H1345.61V390.968C1345.61 391.404 1345.68 391.759 1345.81 392.031C1345.96 392.293 1346.17 392.482 1346.44 392.598C1346.71 392.705 1347.04 392.759 1347.42 392.759C1347.69 392.759 1347.97 392.734 1348.28 392.686C1348.59 392.627 1348.82 392.579 1348.97 392.54L1350.05 397.68C1349.71 397.777 1349.23 397.898 1348.61 398.044C1348 398.189 1347.27 398.281 1346.41 398.32C1344.74 398.398 1343.31 398.204 1342.12 397.738C1340.93 397.262 1340.03 396.525 1339.39 395.525C1338.77 394.525 1338.47 393.268 1338.49 391.754V370.278Z" fill="#ABAAC5"/>
<path d="M1469.28 594.185H1478.2L1485.77 612.647H1486.12L1493.69 594.185H1502.62V624.003H1495.6V605.687H1495.35L1488.19 623.814H1483.71L1476.54 605.585H1476.3V624.003H1469.28V594.185ZM1517.55 624.426C1515.2 624.426 1513.19 623.945 1511.5 622.984C1509.82 622.014 1508.52 620.664 1507.61 618.937C1506.71 617.199 1506.26 615.185 1506.26 612.894C1506.26 610.594 1506.71 608.58 1507.61 606.852C1508.52 605.115 1509.82 603.765 1511.5 602.805C1513.19 601.834 1515.2 601.349 1517.55 601.349C1519.9 601.349 1521.92 601.834 1523.6 602.805C1525.28 603.765 1526.58 605.115 1527.48 606.852C1528.4 608.58 1528.85 610.594 1528.85 612.894C1528.85 615.185 1528.4 617.199 1527.48 618.937C1526.58 620.664 1525.28 622.014 1523.6 622.984C1521.92 623.945 1519.9 624.426 1517.55 624.426ZM1517.6 619.053C1518.45 619.053 1519.17 618.791 1519.77 618.267C1520.36 617.743 1520.81 617.015 1521.12 616.083C1521.44 615.151 1521.6 614.074 1521.6 612.851C1521.6 611.608 1521.44 610.521 1521.12 609.589C1520.81 608.658 1520.36 607.93 1519.77 607.405C1519.17 606.881 1518.45 606.619 1517.6 606.619C1516.71 606.619 1515.97 606.881 1515.35 607.405C1514.75 607.93 1514.29 608.658 1513.97 609.589C1513.66 610.521 1513.51 611.608 1513.51 612.851C1513.51 614.074 1513.66 615.151 1513.97 616.083C1514.29 617.015 1514.75 617.743 1515.35 618.267C1515.97 618.791 1516.71 619.053 1517.6 619.053ZM1540.67 624.324C1539.02 624.324 1537.52 623.897 1536.17 623.042C1534.82 622.188 1533.74 620.907 1532.94 619.199C1532.13 617.49 1531.73 615.37 1531.73 612.836C1531.73 610.206 1532.14 608.041 1532.98 606.343C1533.81 604.644 1534.91 603.387 1536.26 602.572C1537.61 601.756 1539.08 601.349 1540.64 601.349C1541.81 601.349 1542.82 601.552 1543.65 601.96C1544.49 602.358 1545.18 602.872 1545.72 603.503C1546.26 604.134 1546.68 604.79 1546.96 605.469H1547.1V594.185H1554.22V624.003H1547.18V620.378H1546.96C1546.66 621.067 1546.23 621.713 1545.68 622.314C1545.12 622.916 1544.43 623.402 1543.59 623.77C1542.77 624.139 1541.79 624.324 1540.67 624.324ZM1543.14 618.777C1544.01 618.777 1544.74 618.534 1545.36 618.049C1545.97 617.553 1546.44 616.859 1546.77 615.966C1547.1 615.073 1547.26 614.025 1547.26 612.822C1547.26 611.599 1547.1 610.545 1546.77 609.662C1546.45 608.779 1545.98 608.099 1545.36 607.624C1544.74 607.148 1544.01 606.91 1543.14 606.91C1542.26 606.91 1541.51 607.153 1540.9 607.638C1540.29 608.124 1539.82 608.808 1539.5 609.691C1539.19 610.575 1539.04 611.618 1539.04 612.822C1539.04 614.025 1539.2 615.073 1539.52 615.966C1539.84 616.859 1540.3 617.553 1540.9 618.049C1541.51 618.534 1542.26 618.777 1543.14 618.777ZM1565.03 624.382C1563.6 624.382 1562.34 624.144 1561.23 623.669C1560.13 623.183 1559.26 622.455 1558.62 621.485C1557.99 620.504 1557.68 619.276 1557.68 617.801C1557.68 616.559 1557.89 615.51 1558.33 614.656C1558.77 613.802 1559.37 613.108 1560.14 612.574C1560.9 612.04 1561.79 611.637 1562.79 611.366C1563.79 611.084 1564.85 610.895 1565.99 610.798C1567.26 610.681 1568.29 610.56 1569.06 610.434C1569.84 610.298 1570.4 610.109 1570.75 609.866C1571.11 609.614 1571.29 609.259 1571.29 608.803V608.73C1571.29 607.983 1571.03 607.405 1570.52 606.998C1570 606.59 1569.31 606.386 1568.44 606.386C1567.49 606.386 1566.74 606.59 1566.16 606.998C1565.59 607.405 1565.23 607.968 1565.07 608.687L1558.51 608.454C1558.7 607.095 1559.2 605.881 1560.01 604.814C1560.82 603.736 1561.94 602.892 1563.35 602.28C1564.78 601.659 1566.49 601.349 1568.49 601.349C1569.92 601.349 1571.24 601.518 1572.44 601.858C1573.64 602.188 1574.69 602.674 1575.58 603.314C1576.48 603.945 1577.17 604.722 1577.65 605.644C1578.15 606.566 1578.39 607.619 1578.39 608.803V624.003H1571.7V620.888H1571.52C1571.12 621.645 1570.61 622.285 1569.99 622.81C1569.38 623.334 1568.66 623.727 1567.82 623.989C1567 624.251 1566.07 624.382 1565.03 624.382ZM1567.23 619.723C1567.99 619.723 1568.68 619.568 1569.29 619.257C1569.92 618.946 1570.41 618.519 1570.78 617.976C1571.15 617.422 1571.33 616.782 1571.33 616.054V613.928C1571.13 614.035 1570.88 614.132 1570.59 614.219C1570.31 614.307 1570 614.389 1569.66 614.467C1569.32 614.544 1568.97 614.612 1568.61 614.671C1568.25 614.729 1567.91 614.782 1567.58 614.831C1566.91 614.938 1566.33 615.103 1565.86 615.326C1565.39 615.549 1565.03 615.84 1564.78 616.199C1564.54 616.549 1564.42 616.966 1564.42 617.452C1564.42 618.189 1564.68 618.752 1565.2 619.14C1565.74 619.529 1566.41 619.723 1567.23 619.723ZM1589.87 594.185V624.003H1582.75V594.185H1589.87Z" fill="#ABAAC5"/>
<path d="M1700.67 522.405C1698.57 522.405 1696.76 521.96 1695.23 521.069C1693.71 520.169 1692.54 518.919 1691.71 517.317C1690.88 515.707 1690.47 513.84 1690.47 511.717C1690.47 509.576 1690.88 507.705 1691.71 506.104C1692.54 504.493 1693.71 503.243 1695.23 502.352C1696.76 501.453 1698.57 501.003 1700.67 501.003C1702.77 501.003 1704.57 501.453 1706.09 502.352C1707.62 503.243 1708.8 504.493 1709.63 506.104C1710.46 507.705 1710.87 509.576 1710.87 511.717C1710.87 513.84 1710.46 515.707 1709.63 517.317C1708.8 518.919 1707.62 520.169 1706.09 521.069C1704.57 521.96 1702.77 522.405 1700.67 522.405ZM1700.7 517.952C1701.65 517.952 1702.45 517.682 1703.08 517.142C1703.72 516.593 1704.2 515.847 1704.53 514.902C1704.86 513.957 1705.03 512.882 1705.03 511.677C1705.03 510.471 1704.86 509.396 1704.53 508.452C1704.2 507.507 1703.72 506.76 1703.08 506.212C1702.45 505.663 1701.65 505.388 1700.7 505.388C1699.73 505.388 1698.92 505.663 1698.27 506.212C1697.62 506.76 1697.13 507.507 1696.8 508.452C1696.47 509.396 1696.31 510.471 1696.31 511.677C1696.31 512.882 1696.47 513.957 1696.8 514.902C1697.13 515.847 1697.62 516.593 1698.27 517.142C1698.92 517.682 1699.73 517.952 1700.7 517.952ZM1714.61 529.773V501.273H1720.28V504.754H1720.53C1720.78 504.196 1721.15 503.63 1721.63 503.054C1722.11 502.469 1722.74 501.983 1723.52 501.597C1724.3 501.201 1725.27 501.003 1726.43 501.003C1727.94 501.003 1729.34 501.399 1730.61 502.19C1731.89 502.973 1732.91 504.156 1733.68 505.739C1734.44 507.314 1734.82 509.288 1734.82 511.663C1734.82 513.975 1734.45 515.928 1733.7 517.52C1732.97 519.103 1731.96 520.304 1730.68 521.123C1729.41 521.933 1727.99 522.337 1726.42 522.337C1725.3 522.337 1724.35 522.153 1723.57 521.784C1722.8 521.415 1722.16 520.952 1721.67 520.394C1721.17 519.827 1720.79 519.256 1720.53 518.68H1720.36V529.773H1714.61ZM1720.24 511.636C1720.24 512.869 1720.41 513.944 1720.75 514.862C1721.09 515.779 1721.59 516.494 1722.23 517.007C1722.88 517.511 1723.67 517.763 1724.59 517.763C1725.53 517.763 1726.32 517.506 1726.97 516.994C1727.62 516.472 1728.11 515.752 1728.44 514.835C1728.78 513.908 1728.95 512.842 1728.95 511.636C1728.95 510.44 1728.79 509.387 1728.45 508.479C1728.12 507.57 1727.63 506.859 1726.98 506.347C1726.34 505.834 1725.54 505.577 1724.59 505.577C1723.66 505.577 1722.87 505.825 1722.22 506.32C1721.58 506.814 1721.09 507.516 1720.75 508.425C1720.41 509.333 1720.24 510.404 1720.24 511.636ZM1748.1 522.405C1745.97 522.405 1744.13 521.973 1742.6 521.109C1741.07 520.237 1739.89 519.004 1739.06 517.412C1738.23 515.811 1737.82 513.917 1737.82 511.731C1737.82 509.599 1738.23 507.728 1739.06 506.117C1739.89 504.507 1741.05 503.252 1742.56 502.352C1744.07 501.453 1745.84 501.003 1747.87 501.003C1749.24 501.003 1750.51 501.223 1751.69 501.664C1752.88 502.096 1753.91 502.748 1754.8 503.621C1755.69 504.493 1756.38 505.591 1756.87 506.913C1757.37 508.227 1757.62 509.765 1757.62 511.528V513.107H1740.11V509.545H1752.2C1752.2 508.717 1752.02 507.984 1751.66 507.345C1751.3 506.706 1750.81 506.207 1750.17 505.847C1749.54 505.478 1748.8 505.294 1747.97 505.294C1747.09 505.294 1746.32 505.496 1745.65 505.901C1744.98 506.297 1744.46 506.832 1744.08 507.507C1743.7 508.173 1743.51 508.915 1743.5 509.734V513.121C1743.5 514.146 1743.69 515.032 1744.07 515.779C1744.45 516.526 1745 517.102 1745.7 517.506C1746.4 517.911 1747.23 518.114 1748.2 518.114C1748.84 518.114 1749.42 518.024 1749.95 517.844C1750.48 517.664 1750.94 517.394 1751.31 517.034C1751.69 516.674 1751.98 516.233 1752.18 515.712L1757.49 516.062C1757.22 517.34 1756.67 518.455 1755.83 519.409C1755.01 520.354 1753.94 521.091 1752.62 521.622C1751.32 522.144 1749.81 522.405 1748.1 522.405ZM1767.12 510.017V522H1761.37V501.273H1766.85V504.93H1767.09C1767.55 503.724 1768.32 502.771 1769.4 502.069C1770.48 501.358 1771.78 501.003 1773.32 501.003C1774.76 501.003 1776.02 501.318 1777.09 501.947C1778.16 502.577 1778.99 503.477 1779.58 504.646C1780.18 505.807 1780.47 507.192 1780.47 508.803V522H1774.73V509.828C1774.74 508.56 1774.41 507.57 1773.75 506.859C1773.1 506.14 1772.19 505.78 1771.04 505.78C1770.27 505.78 1769.58 505.946 1768.99 506.279C1768.41 506.612 1767.95 507.098 1767.61 507.737C1767.29 508.366 1767.12 509.126 1767.12 510.017Z" fill="#B35DE8"/>
<path d="M1243.3 751V730.273H1248.88V733.889H1249.09C1249.47 732.603 1250.11 731.631 1251 730.974C1251.89 730.309 1252.91 729.976 1254.07 729.976C1254.36 729.976 1254.67 729.994 1255 730.03C1255.34 730.066 1255.63 730.115 1255.88 730.178V735.279C1255.61 735.198 1255.24 735.126 1254.76 735.063C1254.28 735 1253.85 734.969 1253.45 734.969C1252.61 734.969 1251.85 735.153 1251.18 735.522C1250.53 735.882 1250.01 736.386 1249.62 737.033C1249.24 737.681 1249.05 738.428 1249.05 739.273V751H1243.3ZM1267.33 751.405C1265.2 751.405 1263.37 750.973 1261.83 750.109C1260.3 749.237 1259.12 748.004 1258.29 746.412C1257.47 744.811 1257.05 742.917 1257.05 740.731C1257.05 738.599 1257.47 736.728 1258.29 735.117C1259.12 733.507 1260.29 732.252 1261.79 731.352C1263.3 730.453 1265.07 730.003 1267.1 730.003C1268.47 730.003 1269.75 730.223 1270.92 730.664C1272.11 731.096 1273.15 731.748 1274.03 732.621C1274.92 733.493 1275.61 734.591 1276.11 735.913C1276.6 737.227 1276.85 738.765 1276.85 740.528V742.107H1259.35V738.545H1271.44C1271.44 737.717 1271.26 736.984 1270.9 736.345C1270.54 735.706 1270.04 735.207 1269.4 734.847C1268.77 734.478 1268.04 734.294 1267.2 734.294C1266.33 734.294 1265.55 734.496 1264.88 734.901C1264.21 735.297 1263.69 735.832 1263.31 736.507C1262.94 737.173 1262.74 737.915 1262.73 738.734V742.121C1262.73 743.146 1262.92 744.032 1263.3 744.779C1263.69 745.526 1264.23 746.102 1264.93 746.506C1265.63 746.911 1266.47 747.114 1267.43 747.114C1268.07 747.114 1268.65 747.024 1269.18 746.844C1269.71 746.664 1270.17 746.394 1270.55 746.034C1270.92 745.674 1271.21 745.233 1271.41 744.712L1276.73 745.062C1276.46 746.34 1275.9 747.455 1275.07 748.409C1274.24 749.354 1273.17 750.091 1271.85 750.622C1270.55 751.144 1269.04 751.405 1267.33 751.405ZM1297.84 736.183L1292.58 736.507C1292.49 736.057 1292.3 735.652 1292 735.293C1291.71 734.924 1291.31 734.631 1290.83 734.415C1290.35 734.191 1289.78 734.078 1289.11 734.078C1288.22 734.078 1287.47 734.267 1286.86 734.645C1286.25 735.014 1285.94 735.509 1285.94 736.129C1285.94 736.624 1286.14 737.042 1286.54 737.384C1286.93 737.726 1287.61 738 1288.57 738.207L1292.33 738.963C1294.34 739.377 1295.84 740.043 1296.83 740.96C1297.82 741.878 1298.32 743.083 1298.32 744.577C1298.32 745.935 1297.92 747.127 1297.12 748.153C1296.32 749.178 1295.24 749.979 1293.85 750.555C1292.47 751.121 1290.89 751.405 1289.09 751.405C1286.34 751.405 1284.16 750.834 1282.53 749.691C1280.91 748.54 1279.96 746.974 1279.68 744.995L1285.34 744.698C1285.51 745.535 1285.92 746.174 1286.58 746.614C1287.23 747.046 1288.08 747.262 1289.1 747.262C1290.11 747.262 1290.92 747.069 1291.53 746.682C1292.15 746.286 1292.47 745.778 1292.47 745.157C1292.47 744.635 1292.24 744.208 1291.81 743.875C1291.38 743.533 1290.72 743.272 1289.82 743.092L1286.23 742.377C1284.2 741.972 1282.7 741.271 1281.71 740.272C1280.73 739.273 1280.23 738 1280.23 736.453C1280.23 735.122 1280.59 733.975 1281.31 733.012C1282.04 732.049 1283.06 731.307 1284.38 730.786C1285.7 730.264 1287.25 730.003 1289.02 730.003C1291.64 730.003 1293.7 730.556 1295.2 731.663C1296.71 732.769 1297.59 734.276 1297.84 736.183ZM1315.23 742.175V730.273H1320.98V751H1315.46V747.235H1315.24C1314.77 748.45 1314 749.426 1312.91 750.163C1311.83 750.901 1310.51 751.27 1308.95 751.27C1307.57 751.27 1306.35 750.955 1305.3 750.325C1304.24 749.696 1303.42 748.8 1302.83 747.64C1302.24 746.479 1301.95 745.089 1301.94 743.47V730.273H1307.69V742.445C1307.69 743.668 1308.02 744.635 1308.67 745.346C1309.32 746.057 1310.19 746.412 1311.28 746.412C1311.97 746.412 1312.62 746.254 1313.22 745.94C1313.82 745.616 1314.31 745.139 1314.68 744.509C1315.05 743.879 1315.24 743.101 1315.23 742.175ZM1331.32 723.364V751H1325.58V723.364H1331.32ZM1346.95 730.273V734.591H1334.47V730.273H1346.95ZM1337.31 725.307H1343.05V744.631C1343.05 745.161 1343.14 745.575 1343.3 745.872C1343.46 746.16 1343.68 746.362 1343.97 746.479C1344.27 746.596 1344.61 746.655 1345 746.655C1345.27 746.655 1345.54 746.632 1345.81 746.587C1346.08 746.533 1346.28 746.493 1346.43 746.466L1347.33 750.744C1347.04 750.834 1346.64 750.937 1346.12 751.054C1345.6 751.18 1344.96 751.256 1344.21 751.283C1342.83 751.337 1341.61 751.153 1340.57 750.73C1339.54 750.307 1338.73 749.651 1338.16 748.76C1337.58 747.869 1337.3 746.745 1337.31 745.386V725.307Z" fill="#B35DE8"/>
<path d="M1735.83 695.182C1737.59 696.939 1740.43 696.939 1742.19 695.182L1770.83 666.544C1772.59 664.787 1772.59 661.938 1770.83 660.18C1769.07 658.423 1766.22 658.423 1764.47 660.18L1739.01 685.636L1713.55 660.18C1711.8 658.423 1708.95 658.423 1707.19 660.18C1705.43 661.938 1705.43 664.787 1707.19 666.544L1735.83 695.182ZM1734.51 550L1734.51 692L1743.51 692L1743.51 550L1734.51 550Z" fill="#B35DE8" fill-opacity="0.6"/>
<path d="M1393.82 734.815C1392.06 736.572 1392.06 739.421 1393.82 741.179L1422.46 769.816C1424.21 771.574 1427.06 771.574 1428.82 769.816C1430.58 768.059 1430.58 765.21 1428.82 763.452L1403.36 737.997L1428.82 712.541C1430.58 710.783 1430.58 707.934 1428.82 706.177C1427.06 704.419 1424.21 704.419 1422.46 706.177L1393.82 734.815ZM1568 733.497L1397 733.497L1397 742.497L1568 742.497L1568 733.497Z" fill="#B35DE8" fill-opacity="0.6"/>
<path d="M930.766 133.182L923.138 155H916.32L908.692 133.182H915.084L919.615 148.793H919.843L924.36 133.182H930.766ZM939.498 155.412C938.106 155.412 936.866 155.17 935.777 154.688C934.688 154.195 933.826 153.471 933.191 152.514C932.566 151.548 932.254 150.346 932.254 148.906C932.254 147.694 932.476 146.676 932.921 145.852C933.367 145.028 933.973 144.366 934.74 143.864C935.507 143.362 936.378 142.983 937.353 142.727C938.338 142.472 939.37 142.292 940.45 142.188C941.719 142.055 942.742 141.932 943.518 141.818C944.295 141.695 944.858 141.515 945.208 141.278C945.559 141.042 945.734 140.691 945.734 140.227V140.142C945.734 139.242 945.45 138.546 944.882 138.054C944.323 137.562 943.528 137.315 942.495 137.315C941.406 137.315 940.54 137.557 939.896 138.04C939.252 138.513 938.826 139.11 938.617 139.83L933.021 139.375C933.305 138.049 933.864 136.903 934.697 135.938C935.53 134.962 936.605 134.214 937.921 133.693C939.247 133.163 940.781 132.898 942.524 132.898C943.736 132.898 944.896 133.04 946.004 133.324C947.121 133.608 948.111 134.048 948.973 134.645C949.844 135.241 950.53 136.009 951.032 136.946C951.534 137.874 951.785 138.987 951.785 140.284V155H946.046V151.974H945.876C945.526 152.656 945.057 153.258 944.47 153.778C943.883 154.29 943.177 154.692 942.353 154.986C941.529 155.27 940.578 155.412 939.498 155.412ZM941.231 151.236C942.121 151.236 942.907 151.061 943.589 150.71C944.271 150.35 944.806 149.867 945.194 149.261C945.582 148.655 945.777 147.969 945.777 147.202V144.886C945.587 145.009 945.327 145.123 944.995 145.227C944.673 145.322 944.309 145.412 943.902 145.497C943.494 145.573 943.087 145.644 942.68 145.71C942.273 145.767 941.903 145.819 941.572 145.866C940.862 145.971 940.242 146.136 939.711 146.364C939.181 146.591 938.769 146.899 938.475 147.287C938.182 147.666 938.035 148.139 938.035 148.707C938.035 149.531 938.333 150.161 938.93 150.597C939.536 151.023 940.303 151.236 941.231 151.236ZM962.531 125.909V155H956.48V125.909H962.531ZM981.37 145.71V133.182H987.421V155H981.611V151.037H981.384C980.891 152.315 980.072 153.343 978.926 154.119C977.79 154.896 976.403 155.284 974.765 155.284C973.306 155.284 972.023 154.953 970.915 154.29C969.807 153.627 968.941 152.685 968.316 151.463C967.7 150.241 967.388 148.778 967.378 147.074V133.182H973.429V145.994C973.439 147.282 973.784 148.3 974.466 149.048C975.148 149.796 976.062 150.17 977.208 150.17C977.937 150.17 978.619 150.005 979.253 149.673C979.888 149.332 980.399 148.83 980.787 148.168C981.185 147.505 981.379 146.686 981.37 145.71ZM1002.2 155.426C999.96 155.426 998.028 154.972 996.409 154.062C994.799 153.144 993.558 151.847 992.687 150.17C991.816 148.485 991.38 146.491 991.38 144.19C991.38 141.946 991.816 139.976 992.687 138.281C993.558 136.586 994.785 135.265 996.366 134.318C997.957 133.371 999.823 132.898 1001.96 132.898C1003.4 132.898 1004.74 133.13 1005.98 133.594C1007.23 134.048 1008.32 134.735 1009.25 135.653C1010.19 136.572 1010.92 137.727 1011.44 139.119C1011.96 140.502 1012.22 142.121 1012.22 143.977V145.639H993.795V141.889H1006.52C1006.52 141.018 1006.33 140.246 1005.95 139.574C1005.58 138.902 1005.05 138.376 1004.38 137.997C1003.71 137.609 1002.94 137.415 1002.06 137.415C1001.14 137.415 1000.33 137.628 999.619 138.054C998.918 138.471 998.369 139.034 997.971 139.744C997.573 140.445 997.37 141.226 997.36 142.088V145.653C997.36 146.733 997.559 147.666 997.957 148.452C998.364 149.238 998.937 149.844 999.676 150.27C1000.41 150.696 1001.29 150.909 1002.3 150.909C1002.98 150.909 1003.59 150.814 1004.15 150.625C1004.71 150.436 1005.19 150.152 1005.58 149.773C1005.98 149.394 1006.29 148.93 1006.49 148.381L1012.09 148.75C1011.81 150.095 1011.22 151.269 1010.34 152.273C1009.47 153.267 1008.35 154.044 1006.96 154.602C1005.59 155.152 1004 155.426 1002.2 155.426ZM1034.32 139.403L1028.78 139.744C1028.69 139.271 1028.48 138.845 1028.17 138.466C1027.86 138.078 1027.45 137.77 1026.93 137.543C1026.43 137.306 1025.83 137.188 1025.13 137.188C1024.19 137.188 1023.4 137.386 1022.76 137.784C1022.11 138.172 1021.79 138.693 1021.79 139.347C1021.79 139.867 1022 140.308 1022.42 140.668C1022.83 141.027 1023.55 141.316 1024.56 141.534L1028.51 142.33C1030.63 142.765 1032.21 143.466 1033.26 144.432C1034.3 145.398 1034.82 146.667 1034.82 148.239C1034.82 149.669 1034.4 150.923 1033.55 152.003C1032.72 153.082 1031.57 153.925 1030.12 154.531C1028.67 155.128 1027 155.426 1025.1 155.426C1022.21 155.426 1019.91 154.825 1018.2 153.622C1016.49 152.41 1015.49 150.762 1015.2 148.679L1021.15 148.366C1021.33 149.247 1021.77 149.92 1022.46 150.384C1023.15 150.838 1024.04 151.065 1025.12 151.065C1026.18 151.065 1027.03 150.862 1027.67 150.455C1028.33 150.038 1028.66 149.503 1028.67 148.849C1028.66 148.3 1028.43 147.85 1027.97 147.5C1027.52 147.14 1026.82 146.866 1025.87 146.676L1022.09 145.923C1019.96 145.497 1018.37 144.759 1017.33 143.707C1016.3 142.656 1015.78 141.316 1015.78 139.688C1015.78 138.286 1016.16 137.079 1016.92 136.065C1017.69 135.052 1018.76 134.271 1020.14 133.722C1021.54 133.172 1023.17 132.898 1025.03 132.898C1027.79 132.898 1029.96 133.48 1031.54 134.645C1033.13 135.81 1034.06 137.396 1034.32 139.403Z" fill="#5B44E9"/>
<path d="M920.368 219.426C918.124 219.426 916.192 218.972 914.573 218.062C912.963 217.144 911.722 215.847 910.851 214.17C909.98 212.485 909.544 210.491 909.544 208.19C909.544 205.946 909.98 203.976 910.851 202.281C911.722 200.586 912.949 199.265 914.53 198.318C916.121 197.371 917.987 196.898 920.127 196.898C921.566 196.898 922.906 197.13 924.147 197.594C925.397 198.048 926.486 198.735 927.414 199.653C928.351 200.572 929.08 201.727 929.601 203.119C930.122 204.502 930.382 206.121 930.382 207.977V209.639H911.959V205.889H924.686C924.686 205.018 924.497 204.246 924.118 203.574C923.739 202.902 923.214 202.376 922.542 201.997C921.879 201.609 921.107 201.415 920.226 201.415C919.308 201.415 918.493 201.628 917.783 202.054C917.082 202.471 916.533 203.034 916.135 203.744C915.738 204.445 915.534 205.226 915.524 206.088V209.653C915.524 210.733 915.723 211.666 916.121 212.452C916.528 213.238 917.101 213.844 917.84 214.27C918.578 214.696 919.454 214.909 920.468 214.909C921.14 214.909 921.756 214.814 922.314 214.625C922.873 214.436 923.351 214.152 923.749 213.773C924.147 213.394 924.45 212.93 924.658 212.381L930.255 212.75C929.97 214.095 929.388 215.269 928.507 216.273C927.636 217.267 926.509 218.044 925.127 218.602C923.754 219.152 922.167 219.426 920.368 219.426ZM954.086 197.182L946.458 219H939.64L932.012 197.182H938.404L942.936 212.793H943.163L947.68 197.182H954.086ZM966.423 219.426C964.179 219.426 962.247 218.972 960.627 218.062C959.018 217.144 957.777 215.847 956.906 214.17C956.035 212.485 955.599 210.491 955.599 208.19C955.599 205.946 956.035 203.976 956.906 202.281C957.777 200.586 959.003 199.265 960.585 198.318C962.176 197.371 964.041 196.898 966.181 196.898C967.621 196.898 968.961 197.13 970.201 197.594C971.451 198.048 972.54 198.735 973.468 199.653C974.406 200.572 975.135 201.727 975.656 203.119C976.177 204.502 976.437 206.121 976.437 207.977V209.639H958.014V205.889H970.741C970.741 205.018 970.552 204.246 970.173 203.574C969.794 202.902 969.269 202.376 968.596 201.997C967.933 201.609 967.162 201.415 966.281 201.415C965.362 201.415 964.548 201.628 963.838 202.054C963.137 202.471 962.588 203.034 962.19 203.744C961.792 204.445 961.589 205.226 961.579 206.088V209.653C961.579 210.733 961.778 211.666 962.176 212.452C962.583 213.238 963.156 213.844 963.894 214.27C964.633 214.696 965.509 214.909 966.522 214.909C967.195 214.909 967.81 214.814 968.369 214.625C968.928 214.436 969.406 214.152 969.804 213.773C970.201 213.394 970.504 212.93 970.713 212.381L976.309 212.75C976.025 214.095 975.443 215.269 974.562 216.273C973.691 217.267 972.564 218.044 971.181 218.602C969.808 219.152 968.222 219.426 966.423 219.426ZM986.437 206.386V219H980.386V197.182H986.153V201.031H986.409C986.892 199.762 987.701 198.759 988.838 198.02C989.974 197.272 991.352 196.898 992.971 196.898C994.486 196.898 995.807 197.229 996.934 197.892C998.061 198.555 998.937 199.502 999.562 200.733C1000.19 201.955 1000.5 203.413 1000.5 205.108V219H994.448V206.188C994.458 204.852 994.117 203.811 993.426 203.062C992.734 202.305 991.783 201.926 990.571 201.926C989.756 201.926 989.037 202.101 988.412 202.452C987.796 202.802 987.313 203.313 986.963 203.986C986.622 204.649 986.447 205.449 986.437 206.386ZM1016.87 197.182V201.727H1003.73V197.182H1016.87ZM1006.72 191.955H1012.77V212.295C1012.77 212.854 1012.85 213.29 1013.02 213.602C1013.19 213.905 1013.43 214.118 1013.73 214.241C1014.05 214.365 1014.41 214.426 1014.81 214.426C1015.1 214.426 1015.38 214.402 1015.67 214.355C1015.95 214.298 1016.17 214.256 1016.32 214.227L1017.27 218.73C1016.97 218.825 1016.54 218.934 1015.99 219.057C1015.44 219.189 1014.78 219.27 1013.99 219.298C1012.53 219.355 1011.25 219.161 1010.16 218.716C1009.07 218.271 1008.22 217.58 1007.61 216.642C1007.01 215.705 1006.71 214.521 1006.72 213.091V191.955ZM1038.7 203.403L1033.16 203.744C1033.06 203.271 1032.86 202.845 1032.55 202.466C1032.23 202.078 1031.82 201.77 1031.31 201.543C1030.81 201.306 1030.21 201.188 1029.51 201.188C1028.57 201.188 1027.78 201.386 1027.13 201.784C1026.49 202.172 1026.17 202.693 1026.17 203.347C1026.17 203.867 1026.38 204.308 1026.79 204.668C1027.21 205.027 1027.92 205.316 1028.94 205.534L1032.89 206.33C1035.01 206.765 1036.59 207.466 1037.63 208.432C1038.67 209.398 1039.19 210.667 1039.19 212.239C1039.19 213.669 1038.77 214.923 1037.93 216.003C1037.1 217.082 1035.95 217.925 1034.49 218.531C1033.04 219.128 1031.37 219.426 1029.48 219.426C1026.59 219.426 1024.29 218.825 1022.57 217.622C1020.87 216.41 1019.87 214.762 1019.58 212.679L1025.53 212.366C1025.71 213.247 1026.14 213.92 1026.83 214.384C1027.53 214.838 1028.41 215.065 1029.49 215.065C1030.55 215.065 1031.4 214.862 1032.05 214.455C1032.7 214.038 1033.03 213.503 1033.04 212.849C1033.03 212.3 1032.8 211.85 1032.35 211.5C1031.89 211.14 1031.19 210.866 1030.24 210.676L1026.47 209.923C1024.33 209.497 1022.75 208.759 1021.71 207.707C1020.67 206.656 1020.16 205.316 1020.16 203.688C1020.16 202.286 1020.54 201.079 1021.3 200.065C1022.06 199.052 1023.14 198.271 1024.52 197.722C1025.91 197.172 1027.54 196.898 1029.41 196.898C1032.16 196.898 1034.33 197.48 1035.91 198.645C1037.5 199.81 1038.43 201.396 1038.7 203.403Z" fill="#B35DE8"/>
<path d="M1087.83 200.818C1086.07 202.575 1086.07 205.425 1087.83 207.182L1116.47 235.82C1118.22 237.577 1121.07 237.577 1122.83 235.82C1124.59 234.062 1124.59 231.213 1122.83 229.456L1097.37 204L1122.83 178.544C1124.59 176.787 1124.59 173.938 1122.83 172.18C1121.07 170.423 1118.22 170.423 1116.47 172.18L1087.83 200.818ZM1235.01 199.5L1091.01 199.5L1091.01 208.5L1235.01 208.5L1235.01 199.5Z" fill="#B35DE8" fill-opacity="0.6"/>
<path d="M1238.19 143.182C1239.95 141.425 1239.95 138.575 1238.19 136.818L1209.55 108.18C1207.8 106.423 1204.95 106.423 1203.19 108.18C1201.43 109.938 1201.43 112.787 1203.19 114.544L1228.65 140L1203.19 165.456C1201.43 167.213 1201.43 170.062 1203.19 171.82C1204.95 173.577 1207.8 173.577 1209.55 171.82L1238.19 143.182ZM1093.01 144.5H1235.01V135.5H1093.01V144.5Z" fill="#5B44E9" fill-opacity="0.6"/>
<defs>
<filter id="filter0_b_2046_1548" x="155" y="406.997" width="746" height="683" filterUnits="userSpaceOnUse" color-interpolation-filters="sRGB">
<feFlood flood-opacity="0" result="BackgroundImageFix"/>
<feGaussianBlur in="BackgroundImageFix" stdDeviation="2"/>
<feComposite in2="SourceAlpha" operator="in" result="effect1_backgroundBlur_2046_1548"/>
<feBlend mode="normal" in="SourceGraphic" in2="effect1_backgroundBlur_2046_1548" result="shape"/>
</filter>
<filter id="filter1_b_2046_1548" x="403.01" y="632" width="452" height="419" filterUnits="userSpaceOnUse" color-interpolation-filters="sRGB">
<feFlood flood-opacity="0" result="BackgroundImageFix"/>
<feGaussianBlur in="BackgroundImageFix" stdDeviation="2"/>
<feComposite in2="SourceAlpha" operator="in" result="effect1_backgroundBlur_2046_1548"/>
<feBlend mode="normal" in="SourceGraphic" in2="effect1_backgroundBlur_2046_1548" result="shape"/>
</filter>
<filter id="filter2_b_2046_1548" x="1215.01" y="408" width="746" height="683" filterUnits="userSpaceOnUse" color-interpolation-filters="sRGB">
<feFlood flood-opacity="0" result="BackgroundImageFix"/>
<feGaussianBlur in="BackgroundImageFix" stdDeviation="2"/>
<feComposite in2="SourceAlpha" operator="in" result="effect1_backgroundBlur_2046_1548"/>
<feBlend mode="normal" in="SourceGraphic" in2="effect1_backgroundBlur_2046_1548" result="shape"/>
</filter>
<filter id="filter3_b_2046_1548" x="1463.02" y="633.003" width="452" height="419" filterUnits="userSpaceOnUse" color-interpolation-filters="sRGB">
<feFlood flood-opacity="0" result="BackgroundImageFix"/>
<feGaussianBlur in="BackgroundImageFix" stdDeviation="2"/>
<feComposite in2="SourceAlpha" operator="in" result="effect1_backgroundBlur_2046_1548"/>
<feBlend mode="normal" in="SourceGraphic" in2="effect1_backgroundBlur_2046_1548" result="shape"/>
</filter>
</defs>
</svg>
